<?xml version="1.0" encoding="UTF-8" standalone="no"?>
<svg
   xmlns:dc="http://purl.org/dc/elements/1.1/"
   xmlns:cc="http://creativecommons.org/ns#"
   xmlns:rdf="http://www.w3.org/1999/02/22-rdf-syntax-ns#"
   xmlns:svg="http://www.w3.org/2000/svg"
   xmlns="http://www.w3.org/2000/svg"
   viewBox="0 0 595.76001 573.18665"
   height="573.18665"
   width="595.76001"
   xml:space="preserve"
   id="svg2"
   version="1.1"><metadata
     id="metadata8"><rdf:RDF><cc:Work
         rdf:about=""><dc:format>image/svg+xml</dc:format><dc:type
           rdf:resource="http://purl.org/dc/dcmitype/StillImage" /></cc:Work></rdf:RDF></metadata><defs
     id="defs6" /><g
     transform="matrix(1.3333333,0,0,-1.3333333,0,573.18667)"
     id="g10"><g
       transform="scale(0.1)"
       id="g12"><path
         id="path14"
         style="fill:#dadbd8;fill-opacity:1;fill-rule:nonzero;stroke:none"
         d="m 3722.16,3020.04 -104.84,-194.65 -72.44,39.01 104.85,194.65 72.43,-39.01" /><path
         id="path16"
         style="fill:#e7e8e5;fill-opacity:1;fill-rule:nonzero;stroke:none"
         d="m 3741.72,3009.5 -104.83,-194.65 -72.44,39.01 104.85,194.65 72.42,-39.01" /><path
         id="path18"
         style="fill:#ffffff;fill-opacity:1;fill-rule:nonzero;stroke:none"
         d="m 3665.66,2989.68 c -4.87,-9.03 -1.49,-20.29 7.53,-25.15 9.04,-4.86 20.29,-1.48 25.15,7.54 4.86,9.03 1.49,20.28 -7.54,25.15 -9.02,4.86 -20.28,1.48 -25.14,-7.54" /><path
         id="path20"
         style="fill:#e7e8e5;fill-opacity:1;fill-rule:nonzero;stroke:none"
         d="m 3634.08,3029.71 c 0.91,0.1 2.63,-8.45 3.83,-19.11 1.21,-10.65 1.46,-19.37 0.55,-19.47 -0.91,-0.1 -2.63,8.45 -3.84,19.1 -1.2,10.65 -1.45,19.37 -0.54,19.48" /><path
         id="path22"
         style="fill:#e7e8e5;fill-opacity:1;fill-rule:nonzero;stroke:none"
         d="m 3622.48,3008.17 c 0.91,0.11 2.63,-8.45 3.84,-19.1 1.21,-10.65 1.45,-19.37 0.54,-19.47 -0.91,-0.11 -2.62,8.45 -3.83,19.1 -1.21,10.65 -1.46,19.37 -0.55,19.47" /><path
         id="path24"
         style="fill:#e7e8e5;fill-opacity:1;fill-rule:nonzero;stroke:none"
         d="m 3610.88,2986.63 c 0.91,0.11 2.63,-8.44 3.84,-19.09 1.21,-10.66 1.45,-19.38 0.54,-19.48 -0.9,-0.1 -2.62,8.45 -3.83,19.1 -1.21,10.66 -1.46,19.37 -0.55,19.47" /><path
         id="path26"
         style="fill:#e7e8e5;fill-opacity:1;fill-rule:nonzero;stroke:none"
         d="m 3599.29,2965.1 c 0.91,0.1 2.62,-8.45 3.83,-19.1 1.21,-10.65 1.45,-19.37 0.54,-19.47 -0.91,-0.11 -2.62,8.44 -3.83,19.1 -1.22,10.65 -1.46,19.37 -0.54,19.47" /><path
         id="path28"
         style="fill:#e7e8e5;fill-opacity:1;fill-rule:nonzero;stroke:none"
         d="m 3587.69,2943.57 c 0.9,0.1 2.62,-8.45 3.83,-19.1 1.21,-10.66 1.45,-19.37 0.54,-19.48 -0.91,-0.1 -2.63,8.45 -3.83,19.11 -1.21,10.64 -1.45,19.37 -0.54,19.47" /><path
         id="path30"
         style="fill:#e7e8e5;fill-opacity:1;fill-rule:nonzero;stroke:none"
         d="m 3576.08,2922.04 c 0.91,0.1 2.63,-8.46 3.84,-19.11 1.21,-10.65 1.46,-19.37 0.55,-19.47 -0.91,-0.11 -2.63,8.44 -3.84,19.1 -1.21,10.65 -1.45,19.37 -0.55,19.48" /><path
         id="path32"
         style="fill:#e7e8e5;fill-opacity:1;fill-rule:nonzero;stroke:none"
         d="m 3564.48,2900.5 c 0.91,0.1 2.63,-8.45 3.84,-19.1 1.21,-10.65 1.46,-19.37 0.55,-19.48 -0.91,-0.1 -2.63,8.45 -3.84,19.1 -1.21,10.65 -1.45,19.37 -0.55,19.48" /><path
         id="path34"
         style="fill:#e7e8e5;fill-opacity:1;fill-rule:nonzero;stroke:none"
         d="m 3644.5,3048.59 c 0.92,0.11 2.63,-8.45 3.84,-19.1 1.21,-10.65 1.46,-19.37 0.55,-19.47 -0.91,-0.1 -2.63,8.45 -3.84,19.1 -1.21,10.65 -1.46,19.37 -0.55,19.47" /><path
         id="path36"
         style="fill:#e7e8e5;fill-opacity:1;fill-rule:nonzero;stroke:none"
         d="m 3657.43,3054.91 c 0.91,0.1 2.23,-4.93 2.94,-11.23 0.71,-6.31 0.56,-11.5 -0.35,-11.61 -0.91,-0.1 -2.23,4.93 -2.94,11.23 -0.71,6.3 -0.56,11.5 0.35,11.61" /><path
         id="path38"
         style="fill:#dadbd8;fill-opacity:1;fill-rule:nonzero;stroke:none"
         d="m 3516.52,2899.38 88.73,174.12 c 0,0 -34.3,28.06 -40.39,98.5 -4.03,46.61 23.96,78.63 27.76,96.09 2.33,10.67 -20.47,20.56 -30.63,24.59 -9.62,3.83 -27.29,6.84 -41.29,-4.09 -25.93,-20.26 -43.84,-92.55 -43.84,-92.55 0,0 0.14,-16.76 -17.96,-7.01 l -64.58,34.78 c -8.38,4.51 -18.1,6.2 -27.4,4.16 -8.15,-1.78 -16.8,-6.53 -21.74,-17.74 -11.29,-25.62 -4.28,-43.58 -7.07,-48.75 -2.79,-5.17 -14.78,-10.4 -17.61,-28.05 -2.84,-17.66 1.08,-18.11 -2.75,-25.23 -3.82,-7.11 -12.28,-25.92 -13.68,-39.34 -1.39,-13.44 0.99,-21.4 0.99,-21.4 0,0 -15.47,-22.21 -15.32,-39.3 0.18,-22.39 36.65,-56.84 58.58,-58.25 10.26,-0.66 53.64,-12.2 74.18,-17.43 20.55,-5.23 81.09,-15.29 94.02,-33.1" /><path
         id="path40"
         style="fill:#e7e8e5;fill-opacity:1;fill-rule:nonzero;stroke:none"
         d="m 3538.6,2884.97 93.7,173.95 c 0,0 -34.3,28.07 -40.39,98.51 -4.03,46.61 0.78,79.92 4.59,97.39 2.32,10.67 -3.16,21.69 -13.32,25.73 -9.61,3.82 -22.42,6.13 -36.41,-4.8 -25.94,-20.27 -42.86,-94.28 -42.86,-94.28 0,0 0.15,-16.76 -17.96,-7.01 l -64.58,34.78 c -8.38,4.51 -18.1,6.2 -27.39,4.16 -8.16,-1.78 -16.81,-6.53 -21.75,-17.74 -11.29,-25.62 -4.28,-43.58 -7.07,-48.75 -2.79,-5.17 -14.78,-10.4 -17.61,-28.05 -2.84,-17.66 1.09,-18.11 -2.74,-25.23 -3.83,-7.11 -12.29,-25.92 -13.69,-39.34 -1.39,-13.44 1,-21.4 1,-21.4 0,0 -14.48,-22.23 -15.33,-39.3 -0.85,-17.06 22.48,-38.8 31.53,-43.68 9.05,-4.88 80.69,-26.77 101.24,-32 20.54,-5.23 76.1,-15.13 89.04,-32.94" /><path
         id="path42"
         style="fill:#e7e8e5;fill-opacity:1;fill-rule:nonzero;stroke:none"
         d="m 3489.54,3234.01 c 0.91,0.21 4.19,-10.73 8.23,-24.2 4.04,-13.47 7.34,-24.41 6.46,-24.74 -0.84,-0.31 -5.56,10.2 -9.62,23.79 -4.09,13.58 -5.94,24.96 -5.07,25.15" /><path
         id="path44"
         style="fill:#e7e8e5;fill-opacity:1;fill-rule:nonzero;stroke:none"
         d="m 3498.59,3259.15 c 0.91,0.18 3.9,-9.69 8.54,-21.58 4.67,-11.91 7.72,-21.98 6.81,-22.29 -0.82,-0.27 -5.21,9.1 -9.92,21.12 -4.69,12.07 -6.31,22.58 -5.43,22.75" /><path
         id="path46"
         style="fill:#e7e8e5;fill-opacity:1;fill-rule:nonzero;stroke:none"
         d="m 3511.66,3279.17 c 0.99,0.22 3.23,-7.9 7.66,-17.17 4.64,-9.37 6.89,-17.8 5.99,-18.07 -0.86,-0.25 -4.36,7.29 -9,16.68 -4.6,9.68 -5.46,18.44 -4.65,18.56" /><path
         id="path48"
         style="fill:#e7e8e5;fill-opacity:1;fill-rule:nonzero;stroke:none"
         d="m 3528.19,3292.84 c 0.86,0.33 3.8,-5.2 6.57,-12.36 2.77,-7.16 4.32,-13.23 3.46,-13.55 -0.85,-0.33 -3.79,5.2 -6.55,12.36 -2.77,7.15 -4.33,13.22 -3.48,13.55" /><path
         id="path50"
         style="fill:#e7e8e5;fill-opacity:1;fill-rule:nonzero;stroke:none"
         d="m 3546.88,3296.09 c 0.78,0.47 3.17,-2.4 5.33,-6.42 2.16,-4.02 3.23,-7.6 2.41,-8 -0.82,-0.39 -3.21,2.48 -5.33,6.43 -2.12,3.94 -3.21,7.52 -2.41,7.99" /><path
         id="path52"
         style="fill:#e7e8e5;fill-opacity:1;fill-rule:nonzero;stroke:none"
         d="m 3478.08,3200.64 c 0.85,0.33 3.9,-5.55 6.83,-13.13 2.92,-7.58 4.6,-13.99 3.74,-14.32 -0.85,-0.32 -3.9,5.55 -6.83,13.13 -2.92,7.58 -4.6,13.99 -3.74,14.32" /><path
         id="path54"
         style="fill:#e7e8e5;fill-opacity:1;fill-rule:nonzero;stroke:none"
         d="m 3340.29,3196.6 c 0.81,0.42 7.06,-10.08 13.96,-23.45 6.89,-13.37 11.83,-24.54 11,-24.96 -0.81,-0.42 -7.06,10.08 -13.95,23.45 -6.89,13.36 -11.83,24.54 -11.01,24.96" /><path
         id="path56"
         style="fill:#e7e8e5;fill-opacity:1;fill-rule:nonzero;stroke:none"
         d="m 3357.19,3225.54 c 0.82,0.42 4.79,-5.71 8.89,-13.69 4.1,-7.98 6.76,-14.8 5.94,-15.21 -0.81,-0.42 -4.79,5.71 -8.88,13.7 -4.11,7.97 -6.76,14.79 -5.95,15.2" /><path
         id="path58"
         style="fill:#e7e8e5;fill-opacity:1;fill-rule:nonzero;stroke:none"
         d="m 3327.43,3149.07 c 0.74,0.49 6.35,-6.71 11.49,-16.67 5.16,-9.94 7.82,-18.67 6.99,-18.99 -0.87,-0.35 -4.85,7.69 -9.93,17.47 -5.06,9.78 -9.34,17.67 -8.55,18.19" /><path
         id="path60"
         style="fill:#e7e8e5;fill-opacity:1;fill-rule:nonzero;stroke:none"
         d="m 3318.81,3110.47 c 0.83,0.39 5.24,-7.4 9.86,-17.39 4.62,-9.98 7.69,-18.39 6.86,-18.77 -0.83,-0.39 -5.25,7.4 -9.87,17.39 -4.61,9.98 -7.68,18.39 -6.85,18.77" /><path
         id="path62"
         style="fill:#e7e8e5;fill-opacity:1;fill-rule:nonzero;stroke:none"
         d="m 3304.99,3066.76 c 0.88,0.33 5.2,-9.09 10.79,-20.53 5.58,-11.45 10.35,-20.64 9.55,-21.13 -0.75,-0.47 -6.87,8.07 -12.53,19.68 -5.67,11.6 -8.64,21.67 -7.81,21.98" /><path
         id="path64"
         style="fill:#e7e8e5;fill-opacity:1;fill-rule:nonzero;stroke:none"
         d="m 3295.32,3028.94 c 0.84,0.32 5.9,-10.64 12.48,-23.99 6.5,-13.41 12.02,-24.13 11.24,-24.6 -0.78,-0.5 -7.67,9.63 -14.21,23.14 -6.64,13.47 -10.39,25.13 -9.51,25.45" /><path
         id="path66"
         style="fill:#dadbd8;fill-opacity:1;fill-rule:nonzero;stroke:none"
         d="m 998.984,3817.95 -116.437,280.04 104.195,43.32 116.438,-280.04 -104.196,-43.32" /><path
         id="path68"
         style="fill:#e7e8e5;fill-opacity:1;fill-rule:nonzero;stroke:none"
         d="m 970.836,3806.24 -116.445,280.04 104.203,43.33 116.446,-280.04 -104.204,-43.33" /><path
         id="path70"
         style="fill:#ffffff;fill-opacity:1;fill-rule:nonzero;stroke:none"
         d="m 1015.56,3904.36 c -5.4,12.99 -20.298,19.14 -33.283,13.73 -12.988,-5.39 -19.136,-20.3 -13.734,-33.28 5.395,-12.99 20.301,-19.14 33.287,-13.74 12.98,5.4 19.13,20.31 13.73,33.29" /><path
         id="path72"
         style="fill:#e7e8e5;fill-opacity:1;fill-rule:nonzero;stroke:none"
         d="m 1085.49,3903.33 c -0.67,-1.06 -11.26,4.52 -23.64,12.44 -12.39,7.93 -21.88,15.22 -21.2,16.28 0.67,1.06 11.26,-4.52 23.65,-12.45 12.38,-7.93 21.87,-15.22 21.19,-16.27" /><path
         id="path74"
         style="fill:#e7e8e5;fill-opacity:1;fill-rule:nonzero;stroke:none"
         d="m 1072.61,3934.31 c -0.68,-1.06 -11.26,4.52 -23.64,12.45 -12.39,7.93 -21.88,15.21 -21.21,16.27 0.68,1.06 11.27,-4.51 23.66,-12.45 12.38,-7.93 21.87,-15.22 21.19,-16.27" /><path
         id="path76"
         style="fill:#e7e8e5;fill-opacity:1;fill-rule:nonzero;stroke:none"
         d="m 1059.73,3965.29 c -0.68,-1.06 -11.26,4.52 -23.65,12.45 -12.38,7.93 -21.88,15.21 -21.2,16.27 0.68,1.06 11.27,-4.51 23.66,-12.45 12.38,-7.93 21.87,-15.21 21.19,-16.27" /><path
         id="path78"
         style="fill:#e7e8e5;fill-opacity:1;fill-rule:nonzero;stroke:none"
         d="m 1046.85,3996.27 c -0.68,-1.06 -11.27,4.52 -23.65,12.45 -12.38,7.93 -21.88,15.21 -21.2,16.27 0.68,1.06 11.27,-4.51 23.65,-12.45 12.38,-7.93 21.88,-15.21 21.2,-16.27" /><path
         id="path80"
         style="fill:#e7e8e5;fill-opacity:1;fill-rule:nonzero;stroke:none"
         d="m 1033.97,4027.25 c -0.68,-1.05 -11.27,4.52 -23.65,12.45 -12.39,7.93 -21.879,15.21 -21.199,16.28 0.676,1.05 11.259,-4.52 23.649,-12.46 12.38,-7.93 21.87,-15.21 21.2,-16.27" /><path
         id="path82"
         style="fill:#e7e8e5;fill-opacity:1;fill-rule:nonzero;stroke:none"
         d="m 1021.08,4058.23 c -0.67,-1.05 -11.26,4.52 -23.642,12.45 -12.387,7.93 -21.875,15.22 -21.204,16.28 0.68,1.05 11.266,-4.52 23.657,-12.46 12.379,-7.93 21.869,-15.21 21.189,-16.27" /><path
         id="path84"
         style="fill:#e7e8e5;fill-opacity:1;fill-rule:nonzero;stroke:none"
         d="m 1008.2,4089.22 c -0.67,-1.06 -11.262,4.51 -23.641,12.44 -12.391,7.93 -21.883,15.22 -21.204,16.28 0.68,1.05 11.266,-4.52 23.653,-12.45 12.383,-7.93 21.872,-15.22 21.192,-16.27" /><path
         id="path86"
         style="fill:#e7e8e5;fill-opacity:1;fill-rule:nonzero;stroke:none"
         d="m 1096.57,3875.88 c -0.68,-1.05 -11.26,4.52 -23.64,12.45 -12.39,7.94 -21.88,15.22 -21.21,16.28 0.68,1.05 11.27,-4.52 23.65,-12.45 12.38,-7.93 21.88,-15.22 21.2,-16.28" /><path
         id="path88"
         style="fill:#e7e8e5;fill-opacity:1;fill-rule:nonzero;stroke:none"
         d="m 1092.11,3856.67 c -0.68,-1.06 -7.17,1.89 -14.5,6.58 -7.33,4.7 -12.73,9.36 -12.05,10.41 0.68,1.07 7.17,-1.88 14.5,-6.58 7.33,-4.69 12.72,-9.36 12.05,-10.41" /><path
         id="path90"
         style="fill:#dadbd8;fill-opacity:1;fill-rule:nonzero;stroke:none"
         d="m 1048.52,4141.23 108.54,-245.11 c 0,0 59.55,12.21 139.79,-42.27 53.1,-36.05 62.95,-93.54 78.24,-112.71 9.35,-11.71 39.6,4.01 52.68,11.32 12.4,6.93 30.91,23.13 31.38,47.48 0.88,45.16 -60.56,126.77 -60.56,126.77 0,0 -17.97,14.35 8.08,25.19 l 92.92,38.63 c 12.04,5.01 22.25,13.9 28.13,25.55 5.16,10.24 7.59,23.54 -0.06,38.5 -17.49,34.19 -42.68,42.28 -45.77,49.72 -3.1,7.44 1.72,24.72 -14.62,43.02 -16.34,18.31 -20.22,14.51 -24.48,24.74 -4.25,10.24 -16.94,35.52 -30.03,48.62 -13.09,13.11 -23.63,17.46 -23.63,17.46 0,0 -10.25,35.69 -28.56,50.32 -24,19.18 -92.22,10.18 -112.7,-11.94 -9.59,-10.35 -59.41,-46.53 -82.75,-63.87 -23.34,-17.34 -86.46,-73.07 -116.6,-71.42" /><path
         id="path92"
         style="fill:#e7e8e5;fill-opacity:1;fill-rule:nonzero;stroke:none"
         d="m 1014.08,4130.2 104.06,-250.26 c 0,0 59.55,12.21 139.79,-42.27 53.1,-36.05 84.39,-69.99 99.68,-89.15 9.35,-11.72 25.82,-15.42 38.9,-8.11 12.4,6.93 25.94,18.56 26.41,42.91 0.88,45.16 -63.25,127.21 -63.25,127.21 0,0 -17.97,14.35 8.08,25.18 l 92.91,38.64 c 12.06,5.01 22.26,13.9 28.13,25.54 5.17,10.24 7.6,23.55 -0.05,38.51 -17.49,34.19 -42.68,42.27 -45.77,49.71 -3.1,7.44 1.72,24.73 -14.62,43.03 -16.34,18.3 -20.22,14.51 -24.47,24.74 -4.26,10.24 -16.95,35.51 -30.04,48.62 -13.09,13.11 -23.63,17.46 -23.63,17.46 0,0 -11.13,34.65 -28.56,50.33 -17.43,15.66 -60.76,9.65 -73.78,4.23 -13.03,-5.41 -98.33,-62.71 -121.67,-80.05 -23.34,-17.34 -81.98,-67.91 -112.12,-66.27" /><path
         id="path94"
         style="fill:#e7e8e5;fill-opacity:1;fill-rule:nonzero;stroke:none"
         d="m 1428.03,3880.35 c -0.56,-1.15 -15.05,4.84 -32.88,12.18 -17.83,7.36 -32.33,13.33 -31.92,14.54 0.39,1.16 15.67,-2.91 33.65,-10.34 17.99,-7.41 31.69,-15.28 31.15,-16.38" /><path
         id="path96"
         style="fill:#e7e8e5;fill-opacity:1;fill-rule:nonzero;stroke:none"
         d="m 1446.95,3848.96 c -0.58,-1.12 -13.69,4.24 -30.35,9.6 -16.72,5.33 -30.08,10.79 -29.62,12.05 0.42,1.09 14.2,-2.36 31.05,-7.74 16.92,-5.44 29.51,-12.81 28.92,-13.91" /><path
         id="path98"
         style="fill:#e7e8e5;fill-opacity:1;fill-rule:nonzero;stroke:none"
         d="m 1456.95,3817.72 c -0.62,-1.23 -11.21,3.41 -24.89,6.72 -13.99,3.18 -24.92,8.06 -24.43,9.26 0.48,1.13 11.54,-1.67 25.55,-4.86 14.28,-3.48 24.34,-10.14 23.77,-11.12" /><path
         id="path100"
         style="fill:#e7e8e5;fill-opacity:1;fill-rule:nonzero;stroke:none"
         d="m 1457.19,3788.3 c -0.39,-1.2 -8.82,0.47 -18.83,3.71 -10.01,3.25 -17.82,6.85 -17.43,8.04 0.38,1.19 8.82,-0.47 18.83,-3.71 10.01,-3.25 17.81,-6.85 17.43,-8.04" /><path
         id="path102"
         style="fill:#e7e8e5;fill-opacity:1;fill-rule:nonzero;stroke:none"
         d="m 1444.49,3765.61 c -0.18,-1.25 -5.31,-1.3 -11.46,-0.12 -6.14,1.18 -10.88,3.13 -10.59,4.35 0.29,1.22 5.41,1.27 11.45,0.11 6.04,-1.16 10.78,-3.1 10.6,-4.34" /><path
         id="path104"
         style="fill:#e7e8e5;fill-opacity:1;fill-rule:nonzero;stroke:none"
         d="m 1402.43,3921.45 c -0.38,-1.2 -9.29,0.63 -19.89,4.08 -10.59,3.44 -18.86,7.2 -18.48,8.4 0.39,1.19 9.3,-0.64 19.89,-4.08 10.6,-3.45 18.87,-7.21 18.48,-8.4" /><path
         id="path106"
         style="fill:#e7e8e5;fill-opacity:1;fill-rule:nonzero;stroke:none"
         d="m 1517.38,4071.58 c -0.26,-1.23 -16.84,1.21 -37.03,5.44 -20.2,4.23 -36.36,8.66 -36.11,9.88 0.26,1.23 16.84,-1.2 37.04,-5.44 20.2,-4.23 36.36,-8.65 36.1,-9.88" /><path
         id="path108"
         style="fill:#e7e8e5;fill-opacity:1;fill-rule:nonzero;stroke:none"
         d="m 1533.56,4028.55 c -0.26,-1.23 -10.23,-0.16 -22.28,2.39 -12.04,2.54 -21.59,5.6 -21.32,6.83 0.26,1.23 10.23,0.16 22.27,-2.39 12.03,-2.54 21.58,-5.61 21.33,-6.83" /><path
         id="path110"
         style="fill:#e7e8e5;fill-opacity:1;fill-rule:nonzero;stroke:none"
         d="m 1477.92,4126.41 c -0.12,-1.22 -12.64,-0.95 -27.68,2.19 -15.06,3.1 -26.65,7.84 -26.26,9 0.38,1.23 12.38,-1.5 27.18,-4.55 14.79,-3.09 26.89,-5.37 26.76,-6.64" /><path
         id="path112"
         style="fill:#e7e8e5;fill-opacity:1;fill-rule:nonzero;stroke:none"
         d="m 1444.3,4168.98 c -0.31,-1.21 -12.42,0.82 -27.04,4.55 -14.63,3.73 -26.23,7.74 -25.92,8.95 0.31,1.22 12.42,-0.82 27.04,-4.55 14.62,-3.72 26.23,-7.73 25.92,-8.95" /><path
         id="path114"
         style="fill:#e7e8e5;fill-opacity:1;fill-rule:nonzero;stroke:none"
         d="m 1409.73,4221.52 c -0.4,-1.23 -14.17,2.34 -31.18,6.27 -17.01,3.98 -30.93,6.85 -30.76,8.13 0.16,1.21 14.53,0.33 31.79,-3.71 17.25,-3.98 30.55,-9.54 30.15,-10.69" /><path
         id="path116"
         style="fill:#e7e8e5;fill-opacity:1;fill-rule:nonzero;stroke:none"
         d="m 1377.85,4264.54 c -0.39,-1.17 -16.43,2.92 -36.34,7.48 -19.88,4.69 -36.07,8.1 -35.91,9.32 0.15,1.27 16.89,-0.16 36.94,-4.9 20.07,-4.6 35.73,-10.69 35.31,-11.9" /><path
         id="path118"
         style="fill:#e7e8e5;fill-opacity:1;fill-rule:nonzero;stroke:none"
         d="m 495.766,1158.93 c -61.243,31.6 -133.36,35.7 -201.352,24.47 -36.523,-6.04 -74.605,-16.97 -99.461,-44.4 -24.855,-27.44 -29.566,-75.73 -1.027,-99.31 16.988,-14.03 40.683,-16.16 62.715,-15.91 53.222,0.62 112.285,9.99 154.804,-22.03 24.266,-18.27 40.41,-48.648 69.418,-57.629 28.375,-8.793 60.403,7.949 75.45,33.57 15.046,25.599 15.546,57.629 8.531,86.479 0,0 -7.383,62.92 -69.078,94.76" /><path
         id="path120"
         style="fill:#e7e8e5;fill-opacity:1;fill-rule:nonzero;stroke:none"
         d="m 636.078,1429.79 c -37.449,-53.49 -110.23,-35.77 -143.98,-3.13 -33.746,32.65 -48.016,79.96 -61,125.09 -29.664,103.1 -59.575,211.25 -37.52,316.23 6.598,31.4 18.336,62.7 40.395,85.98 22.054,23.29 55.968,37.14 86.98,28.94 36.695,-9.68 59.508,-45.63 75.992,-79.82 48.457,-100.51 74.114,-211.93 74.493,-323.52 0.179,-52.1 -5.965,-106.74 -35.36,-149.77" /><path
         id="path122"
         style="fill:#e7e8e5;fill-opacity:1;fill-rule:nonzero;stroke:none"
         d="m 738.918,1353.05 c -40.66,48.25 -48.375,118.64 -30.285,179.09 18.097,60.46 58.969,111.89 106.074,153.88 55.234,49.23 120.16,87.53 189.953,112.07 27.47,9.66 56.44,17.28 85.43,14.51 28.98,-2.76 58.17,-17.58 71.69,-43.37 19.99,-38.12 0.82,-84.37 -19.91,-122.1 -36.52,-66.46 -78.28,-130.06 -124.76,-189.99 -37.391,-48.2 -80.227,-95.76 -137.219,-117.55 -56.996,-21.78 -116.196,-19.22 -146.403,20.3" /><path
         id="path124"
         style="fill:#dadbd8;fill-opacity:1;fill-rule:nonzero;stroke:none"
         d="m 638.613,622.961 c -0.703,-0.051 -1.836,8.629 -3.386,24.301 -1.723,17.687 -3.883,39.898 -6.457,66.328 -3.09,27.91 -7.168,61.121 -14.922,97.289 -7.723,36.082 -19.825,75.18 -35.36,114.832 -16.09,39.41 -35.703,75.239 -58.633,103.889 -22.765,28.78 -49.246,49.61 -74.132,61.63 -24.805,12.25 -47.051,17.23 -62.426,19.44 -15.508,1.59 -24.195,2.82 -24.199,3.5 -0.004,0.7 8.695,0.8 24.629,0.38 15.777,-1.05 38.949,-5.04 65.093,-16.94 26.227,-11.63 54.317,-32.78 78.196,-62.16 24.074,-29.25 44.406,-65.872 60.777,-105.989 15.805,-40.34 27.727,-79.852 35.109,-116.699 7.364,-36.801 10.731,-70.383 12.934,-98.524 2.109,-28.168 2.906,-50.968 3.293,-66.738 0.348,-15.77 0.168,-24.5 -0.516,-24.539" /><path
         id="path126"
         style="fill:#dadbd8;fill-opacity:1;fill-rule:nonzero;stroke:none"
         d="m 634.043,673.988 c -0.348,0.024 -0.563,3.903 -0.652,11.293 0.023,8.457 0.05,19.137 0.086,32.239 0.078,27.992 0.066,68.492 -1.434,118.5 -2.477,100.031 -11.09,207.68 -27.727,359.44 -15.75,142.72 -36.894,308.8 -59.207,416.78 -4.781,24.56 -9.601,46.66 -14.14,66.01 -4.324,19.39 -8.02,36.12 -11.582,49.64 -3.063,12.74 -5.551,23.12 -7.535,31.35 -1.618,7.2 -2.305,11.04 -1.973,11.13 0.332,0.09 1.676,-3.55 3.918,-10.57 2.461,-8.12 5.555,-18.35 9.363,-30.91 4.149,-13.4 8.406,-30.02 13.266,-49.34 5.062,-19.26 10.383,-41.31 15.621,-65.84 22.074,-97.84 45.449,-234.59 62.246,-386.71 16.672,-152.09 24.176,-290.57 24.84,-390.84 0.594,-50.14 -0.469,-90.73 -1.754,-118.73 -0.801,-13.102 -1.449,-23.762 -1.969,-32.231 -0.562,-7.359 -1.019,-11.219 -1.367,-11.211" /><path
         id="path128"
         style="fill:#dadbd8;fill-opacity:1;fill-rule:nonzero;stroke:none"
         d="m 633.375,941.078 c -0.699,0.024 -0.574,11.992 0.234,33.692 1.239,21.652 4.219,52.94 10.317,91.27 6.465,38.23 15.5,83.63 29.683,132.98 6.149,22.55 20.602,76.59 55.606,157.34 46.129,109.42 108.789,198.87 163.301,254.28 12.789,14.71 27.031,25.31 38.418,35.71 5.898,4.98 11.101,9.95 16.41,13.89 5.34,3.68 10.304,7.1 14.902,10.27 17.945,12.28 27.992,18.74 28.363,18.17 1.614,-2.19 -40.183,-26.79 -92.961,-82.94 -52.562,-56.03 -113.476,-144.87 -159.222,-253.36 -25.516,-58.85 -43.305,-111.34 -55.926,-155.9 -14.582,-48.86 -24.266,-93.8 -31.586,-131.66 -6.953,-37.94 -10.98,-68.922 -13.414,-90.371 -1.996,-21.488 -3.437,-33.398 -4.125,-33.371" /><path
         id="path130"
         style="fill:#dadbd8;fill-opacity:1;fill-rule:nonzero;stroke:none"
         d="M 891.523,469.949 864.762,103.289 H 393.734 l -26.761,366.66 h 524.55" /><path
         id="path132"
         style="fill:#dadbd8;fill-opacity:1;fill-rule:nonzero;stroke:none"
         d="M 937.023,614.461 V 469.949 h -626.25 v 144.512 h 626.25" /><path
         id="path134"
         style="fill:#e7e8e5;fill-opacity:1;fill-rule:nonzero;stroke:none"
         d="M 937.023,117.32 V 77.2617 H 321.117 V 117.32 h 615.906" /><path
         id="path136"
         style="fill:#dadbd8;fill-opacity:1;fill-rule:nonzero;stroke:none"
         d="m 878.75,6.75 28.844,70.5117 H 343.555 L 377.203,6.75 H 878.75" /><path
         id="path138"
         style="fill:#f3f2f1;fill-opacity:1;fill-rule:nonzero;stroke:none"
         d="m 375.719,350.109 c -0.11,-0.089 0.644,-1.23 2.195,-3.371 1.871,-2.476 4.188,-5.539 7.039,-9.328 6.688,-8.558 15.883,-20.332 27.442,-35.109 l 1.218,-1.563 1.184,1.633 c 17.246,23.84 40.289,55.707 67.41,93.231 h -3.875 c 20.047,-28.391 42.387,-60.024 66.367,-93.981 l 2.078,-2.941 2.328,2.769 c 24.5,29.141 51.094,60.789 78.711,93.653 l -4.535,0.058 c 1.367,-1.719 2.848,-3.582 4.332,-5.449 24.414,-30.602 48.035,-60.211 70.379,-88.231 l 2.352,-2.941 2.164,3.07 c 23.894,33.801 46.219,65.391 66.402,93.95 l -3.859,-0.188 c 32.722,-37.281 60.476,-68.902 81.777,-93.172 l 1.453,-1.66 1.11,1.871 c 10.777,18.102 19.375,32.539 25.605,43.008 2.676,4.672 4.844,8.453 6.567,11.461 1.445,2.621 2.132,4 2.007,4.082 -0.121,0.078 -1.054,-1.152 -2.746,-3.621 -1.906,-2.899 -4.304,-6.539 -7.265,-11.031 -6.543,-10.278 -15.567,-24.457 -26.883,-42.231 l 2.558,0.203 c -20.957,24.559 -48.265,56.571 -80.464,94.309 l -2.032,2.379 -1.836,-2.559 c -20.367,-28.441 -42.89,-59.879 -66.996,-93.531 l 4.508,0.121 c -22.285,28.051 -45.859,57.719 -70.215,88.359 -1.48,1.871 -2.965,3.731 -4.332,5.45 l -2.234,2.812 -2.301,-2.762 C 595.785,365.941 569.266,334.23 544.836,305.031 l 4.406,-0.172 c -24.222,33.782 -46.781,65.25 -67.035,93.5 l -1.961,2.75 -1.922,-2.75 C 451.777,360.43 429.223,328.23 412.34,304.121 l 2.398,0.059 c -12.027,14.429 -21.59,25.879 -28.547,34.218 -3.097,3.602 -5.613,6.512 -7.644,8.852 -1.758,1.969 -2.723,2.949 -2.828,2.859" /><path
         id="path140"
         style="fill:#f3f2f1;fill-opacity:1;fill-rule:nonzero;stroke:none"
         d="m 360.422,472.359 c 0,-1.609 118.019,-2.929 263.578,-2.929 145.605,0 263.602,1.32 263.602,2.929 0,1.621 -117.997,2.942 -263.602,2.942 -145.559,0 -263.578,-1.321 -263.578,-2.942" /><path
         id="path142"
         style="fill:#f3f2f1;fill-opacity:1;fill-rule:nonzero;stroke:none"
         d="m 336.621,73.3086 c 0,-1.6172 128.27,-2.9375 286.461,-2.9375 158.246,0 286.488,1.3203 286.488,2.9375 0,1.6211 -128.242,2.9297 -286.488,2.9297 -158.191,0 -286.461,-1.3086 -286.461,-2.9297" /><path
         id="path144"
         style="fill:#e7e8e5;fill-opacity:1;fill-rule:nonzero;stroke:none"
         d="m 3444.77,2187.03 c 0,-176.24 -142.86,-319.1 -319.1,-319.1 -176.23,0 -319.09,142.86 -319.09,319.1 0,176.23 142.86,319.09 319.09,319.09 176.24,0 319.1,-142.86 319.1,-319.09" /><path
         id="path146"
         style="fill:#dadbd8;fill-opacity:1;fill-rule:nonzero;stroke:none"
         d="m 3419.97,2241.56 c 5.44,0.29 11.4,-8.08 15.82,-24.57 4.46,-16.44 6.42,-41.07 2.54,-71.32 -3.8,-30.2 -14.42,-65.77 -34.44,-101.58 -19.89,-35.76 -49.89,-71.35 -89.27,-99.41 -39.7,-27.64 -83.33,-43.9 -123.69,-50.58 -40.47,-6.79 -77.55,-4.81 -107.27,1.78 -29.78,6.54 -52.31,16.67 -66.29,26.42 -14.03,9.72 -19.91,18.15 -17.8,23.17 4.63,11.01 38.64,4.84 89.3,7.51 50.2,2.11 119.38,16.14 179.06,57.98 59.47,42.09 95.99,102.49 114.89,149.04 19.58,46.8 25.23,80.91 37.15,81.56" /><path
         id="path148"
         style="fill:#ffffff;fill-opacity:1;fill-rule:nonzero;stroke:none"
         d="m 3140.29,2109.66 c 33.18,2.98 66.58,16.04 87.98,39.41 12.77,13.93 24.48,35.05 23.02,53.88 -1.47,18.84 -15.73,37.19 -34.51,39.22 -13.33,1.44 -26.18,-5.02 -37.5,-12.22 -11.31,-7.19 -22.4,-15.49 -35.48,-18.45 -18.73,-4.23 -37.93,3.19 -55.62,10.66 -17.68,7.47 -36.59,15.29 -55.48,11.87 -10.56,-1.91 -24.73,-6.12 -30.39,-20.74 0,0 -9.55,-20.8 9.63,-48.6 17.22,-24.95 62.78,-60.93 128.35,-55.03" /><path
         id="path150"
         style="fill:#ffffff;fill-opacity:1;fill-rule:nonzero;stroke:none"
         d="m 2995.3,2291.18 c -5.27,10.62 -17.49,16.68 -29,15.24 -3.63,-0.16 -6.95,-1.36 -9.87,-3.34 l -0.3,-0.15 0.14,0.04 c -8.76,-6.06 -13.71,-18.92 -11.67,-29.96 2.81,-15.24 20.99,-25.42 35.56,-20.14 14.56,5.28 22.03,24.42 15.14,38.31" /><path
         id="path152"
         style="fill:#ffffff;fill-opacity:1;fill-rule:nonzero;stroke:none"
         d="m 3298.89,2290.18 c -5.27,10.63 -17.48,16.68 -29.01,15.25 -3.63,-0.16 -6.95,-1.36 -9.86,-3.34 l -0.29,-0.15 0.12,0.04 c -8.76,-6.06 -13.71,-18.92 -11.67,-29.96 2.82,-15.24 20.99,-25.42 35.56,-20.14 14.57,5.28 22.03,24.42 15.15,38.3" /><path
         id="path154"
         style="fill:#e7e8e5;fill-opacity:1;fill-rule:nonzero;stroke:none"
         d="m 3415.89,3932.18 c 0,-131.67 -106.74,-238.41 -238.41,-238.41 -131.67,0 -238.41,106.74 -238.41,238.41 0,131.67 106.74,238.41 238.41,238.41 131.67,0 238.41,-106.74 238.41,-238.41" /><path
         id="path156"
         style="fill:#dadbd8;fill-opacity:1;fill-rule:nonzero;stroke:none"
         d="m 3397.36,3972.92 c 4.07,0.22 8.52,-6.04 11.83,-18.36 3.33,-12.28 4.8,-30.68 1.89,-53.28 -2.84,-22.57 -10.78,-49.15 -25.73,-75.9 -14.86,-26.71 -37.27,-53.31 -66.7,-74.27 -29.65,-20.65 -62.25,-32.8 -92.42,-37.8 -30.23,-5.07 -57.93,-3.59 -80.14,1.34 -22.25,4.89 -39.08,12.46 -49.53,19.74 -10.48,7.25 -14.87,13.56 -13.29,17.31 3.46,8.22 28.87,3.61 66.72,5.61 37.51,1.58 89.19,12.05 133.78,43.32 44.43,31.44 71.71,76.57 85.84,111.35 14.63,34.97 18.85,60.45 27.75,60.94" /><path
         id="path158"
         style="fill:#ffffff;fill-opacity:1;fill-rule:nonzero;stroke:none"
         d="m 3166.56,3973.05 c -24.78,-2.23 -49.73,-11.99 -65.73,-29.45 -9.54,-10.41 -18.3,-26.19 -17.2,-40.26 1.1,-14.07 11.75,-27.78 25.78,-29.3 9.97,-1.08 19.58,3.75 28.02,9.13 8.45,5.37 16.74,11.57 26.52,13.78 13.99,3.17 28.33,-2.38 41.54,-7.96 13.22,-5.58 27.34,-11.43 41.46,-8.87 7.89,1.43 18.48,4.57 22.71,15.49 0,0 7.13,15.54 -7.21,36.32 -12.86,18.64 -46.89,45.52 -95.89,41.12" /><path
         id="path160"
         style="fill:#ffffff;fill-opacity:1;fill-rule:nonzero;stroke:none"
         d="m 3080.08,4009.99 c -3.94,7.94 -13.07,12.46 -21.67,11.39 -2.72,-0.11 -5.2,-1.02 -7.37,-2.49 l -0.22,-0.12 0.09,0.03 c -6.54,-4.53 -10.24,-14.13 -8.71,-22.38 2.1,-11.39 15.68,-19 26.56,-15.05 10.88,3.95 16.47,18.25 11.32,28.62" /><path
         id="path162"
         style="fill:#ffffff;fill-opacity:1;fill-rule:nonzero;stroke:none"
         d="m 3306.91,4009.25 c -3.95,7.94 -13.07,12.46 -21.67,11.39 -2.72,-0.12 -5.21,-1.02 -7.38,-2.49 l -0.22,-0.12 0.1,0.03 c -6.55,-4.53 -10.25,-14.13 -8.73,-22.38 2.11,-11.38 15.69,-19 26.58,-15.05 10.88,3.95 16.45,18.25 11.32,28.62" /><path
         id="path164"
         style="fill:#e7e8e5;fill-opacity:1;fill-rule:nonzero;stroke:none"
         d="m 470.488,2371.54 c 0,-117.32 -95.101,-212.42 -212.422,-212.42 -117.32,0 -212.4254,95.1 -212.4254,212.42 0,117.32 95.1054,212.43 212.4254,212.43 117.321,0 212.422,-95.11 212.422,-212.43" /><path
         id="path166"
         style="fill:#dadbd8;fill-opacity:1;fill-rule:nonzero;stroke:none"
         d="m 453.984,2407.85 c 3.618,0.19 7.59,-5.38 10.532,-16.36 2.976,-10.94 4.273,-27.34 1.695,-47.48 -2.531,-20.1 -9.606,-43.79 -22.934,-67.62 -13.238,-23.8 -33.214,-47.51 -59.429,-66.19 -26.418,-18.39 -55.473,-29.22 -82.344,-33.67 -26.938,-4.52 -51.625,-3.2 -71.406,1.19 -19.828,4.35 -34.828,11.1 -44.129,17.59 -9.348,6.47 -13.254,12.08 -11.852,15.43 3.082,7.32 25.723,3.21 59.449,4.99 33.422,1.41 79.473,10.74 119.2,38.6 39.597,28.02 63.898,68.23 76.488,99.22 13.035,31.16 16.797,53.86 24.73,54.3" /><path
         id="path168"
         style="fill:#ffffff;fill-opacity:1;fill-rule:nonzero;stroke:none"
         d="m 267.801,2320.03 c 22.082,1.99 44.312,10.69 58.566,26.24 8.496,9.28 16.301,23.33 15.324,35.87 -0.976,12.54 -10.472,24.76 -22.98,26.11 -8.871,0.96 -17.426,-3.34 -24.961,-8.13 -7.527,-4.79 -14.91,-10.32 -23.617,-12.28 -12.473,-2.82 -25.25,2.12 -37.024,7.09 -11.773,4.97 -24.363,10.19 -36.941,7.91 -7.027,-1.28 -16.461,-4.08 -20.23,-13.81 0,0 -6.352,-13.85 6.417,-32.36 11.458,-16.61 41.79,-40.56 85.446,-36.64" /><path
         id="path170"
         style="fill:#ffffff;fill-opacity:1;fill-rule:nonzero;stroke:none"
         d="m 171.273,2440.87 c -3.507,7.08 -11.636,11.11 -19.304,10.15 -2.418,-0.1 -4.633,-0.9 -6.574,-2.22 l -0.196,-0.1 0.09,0.03 c -5.828,-4.04 -9.125,-12.6 -7.769,-19.95 1.875,-10.14 13.976,-16.92 23.671,-13.41 9.7,3.53 14.664,16.26 10.082,25.5" /><path
         id="path172"
         style="fill:#ffffff;fill-opacity:1;fill-rule:nonzero;stroke:none"
         d="m 373.379,2440.21 c -3.512,7.08 -11.641,11.11 -19.305,10.16 -2.418,-0.11 -4.636,-0.91 -6.574,-2.23 l -0.191,-0.1 0.086,0.03 c -5.832,-4.04 -9.129,-12.6 -7.77,-19.95 1.875,-10.14 13.973,-16.92 23.672,-13.4 9.695,3.51 14.668,16.25 10.082,25.49" /><path
         id="path174"
         style="fill:#e7e8e5;fill-opacity:1;fill-rule:nonzero;stroke:none"
         d="m 3708.43,312.762 -356.05,-1.91 -2.03,377.699 356.06,1.91 2.02,-377.699" /><path
         id="path176"
         style="fill:#f3f2f1;fill-opacity:1;fill-rule:nonzero;stroke:none"
         d="m 4062.8,314.66 -356.05,-1.898 -2.02,377.687 356.05,1.91 2.02,-377.699" /><path
         id="path178"
         style="fill:#dadbd8;fill-opacity:1;fill-rule:nonzero;stroke:none"
         d="m 3350.91,584.238 c 236.62,-1.949 473.83,-0.57 710.43,3.27 4.86,0.07 4.83,7.543 -0.04,7.562 -236.63,1.309 -473.84,0.149 -710.42,-4.34 -4.17,-0.082 -4.14,-6.449 0.03,-6.492" /><path
         id="path180"
         style="fill:#e7e8e5;fill-opacity:1;fill-rule:nonzero;stroke:none"
         d="m 3776.91,11.2617 -646.9,-3.46092 -1.65,307.80122 646.89,3.468 1.66,-307.8083" /><path
         id="path182"
         style="fill:#f3f2f1;fill-opacity:1;fill-rule:nonzero;stroke:none"
         d="m 4420.73,14.7109 -646.88,-3.4726 -1.65,307.8127 646.88,3.457 1.65,-307.7971" /><path
         id="path184"
         style="fill:#dadbd8;fill-opacity:1;fill-rule:nonzero;stroke:none"
         d="m 3128.82,229.988 c 429.75,-4.859 861.01,-0.5 1290.72,6.371 4.87,0.09 4.85,7.551 -0.03,7.571 -429.78,2.269 -861.05,2.019 -1290.72,-7.45 -4.17,-0.101 -4.15,-6.449 0.03,-6.492" /><path
         id="path186"
         style="fill:#f2575d;fill-opacity:1;fill-rule:nonzero;stroke:none"
         d="m 3087.77,1996.61 -507.93,162.94 -607.87,2.25 c 0,0 -469.14,-146.28 -526.07,-176.52 L 1419.7,720.961 1399.33,0 3056.12,8.85156 V 882.09 l 31.65,1114.52" /><path
         id="path188"
         style="fill:#f2575d;fill-opacity:1;fill-rule:nonzero;stroke:none"
         d="m 1445.9,1985.28 c 0,0 -189.31,-155.75 -287.87,-416.35 C 1090.48,1390.32 936.871,994.02 936.871,994.02 l 481.269,-170.641 108.85,768.521 -81.09,393.38" /><path
         id="path190"
         style="fill:#f2575d;fill-opacity:1;fill-rule:nonzero;stroke:none"
         d="m 3028.83,2015.52 c 0,0 125.36,-10.65 248.22,-207.63 86.66,-138.93 297.75,-747.05 297.75,-747.05 l -555.54,-194.129 -134.1,103.258 143.67,1045.551" /><path
         id="path192"
         style="fill:#17282f;fill-opacity:1;fill-rule:nonzero;stroke:none"
         d="m 1419.7,1672.61 c 1.43,0 2.6,-213.06 2.6,-475.8 0,-262.841 -1.17,-475.849 -2.6,-475.849 -1.44,0 -2.61,213.008 -2.61,475.849 0,262.74 1.17,475.8 2.61,475.8" /><path
         id="path194"
         style="fill:#ffffff;fill-opacity:1;fill-rule:nonzero;stroke:none"
         d="m 1395.83,1627.01 c -0.18,-0.55 -10,1.91 -24.82,8.73 -14.81,6.76 -34.37,18.46 -52.98,35.13 -18.56,16.73 -32.28,34.93 -40.58,48.94 -8.36,14.01 -11.85,23.5 -11.33,23.75 1.5,0.98 18.58,-36.14 55.39,-68.82 36.4,-33.11 75.14,-46.14 74.32,-47.73" /><path
         id="path196"
         style="fill:#ffffff;fill-opacity:1;fill-rule:nonzero;stroke:none"
         d="m 3033.29,1584.82 c 0.04,-0.08 -1.22,-0.77 -3.71,-2.04 -2.72,-1.36 -6.41,-3.19 -11.12,-5.52 -10.08,-4.87 -24.52,-11.86 -43.01,-20.79 -9.38,-4.49 -19.78,-9.47 -31.14,-14.91 -11.54,-5.14 -24.38,-9.98 -38.01,-15.58 -27.43,-10.73 -58.13,-24.52 -93.65,-35.35 -17.62,-5.86 -36.07,-11.98 -55.29,-18.37 -19.26,-6.26 -39.84,-10.96 -60.86,-16.81 -10.54,-2.81 -21.27,-5.67 -32.16,-8.58 -5.46,-1.4 -10.91,-3.03 -16.5,-4.28 -5.61,-1.14 -11.27,-2.3 -16.96,-3.47 -22.78,-4.65 -46.22,-9.45 -70.26,-14.36 -96.69,-16.7 -204.3,-28.11 -317.66,-28.67 -113.39,0.6 -221.02,12.05 -317.72,28.79 -24.04,4.92 -47.49,9.71 -70.27,14.38 -5.69,1.17 -11.34,2.33 -16.95,3.48 -5.59,1.26 -11.04,2.88 -16.5,4.29 -10.9,2.91 -21.62,5.77 -32.16,8.58 -21.02,5.87 -41.6,10.57 -60.86,16.84 -19.22,6.38 -37.66,12.52 -55.28,18.38 -35.52,10.85 -66.21,24.65 -93.64,35.39 -13.63,5.6 -26.47,10.45 -38,15.59 -11.36,5.44 -21.75,10.43 -31.13,14.92 -18.49,8.94 -32.92,15.92 -43,20.8 -4.71,2.34 -8.4,4.17 -11.12,5.52 -2.49,1.27 -3.75,1.96 -3.7,2.04 0.04,0.08 1.37,-0.45 3.94,-1.56 2.78,-1.24 6.54,-2.92 11.35,-5.06 10.16,-4.67 24.73,-11.35 43.37,-19.9 9.43,-4.37 19.87,-9.2 31.29,-14.48 11.56,-5 24.44,-9.71 38.09,-15.17 27.5,-10.47 58.21,-24 93.74,-34.6 17.6,-5.75 36.04,-11.77 55.25,-18.03 19.25,-6.15 39.81,-10.74 60.8,-16.5 10.52,-2.76 21.23,-5.58 32.11,-8.44 5.45,-1.38 10.89,-2.98 16.47,-4.21 5.6,-1.13 11.24,-2.26 16.93,-3.41 22.73,-4.59 46.13,-9.3 70.12,-14.14 96.49,-16.42 203.81,-27.68 316.88,-28.3 113.02,0.58 220.32,11.8 316.8,28.2 23.99,4.82 47.39,9.53 70.12,14.11 5.69,1.14 11.33,2.27 16.93,3.4 5.57,1.23 11.01,2.83 16.47,4.2 10.88,2.86 21.58,5.66 32.11,8.42 20.99,5.75 41.55,10.34 60.8,16.49 19.21,6.26 37.65,12.26 55.26,18.01 35.53,10.58 66.25,24.1 93.75,34.56 13.66,5.45 26.53,10.16 38.1,15.15 11.42,5.29 21.87,10.12 31.29,14.48 18.65,8.55 33.22,15.23 43.4,19.89 4.8,2.14 8.56,3.82 11.35,5.06 2.56,1.11 3.9,1.64 3.94,1.56" /><path
         id="path198"
         style="fill:#ffffff;fill-opacity:1;fill-rule:nonzero;stroke:none"
         d="m 3276.2,1759.95 c 0.25,-0.27 -2.04,-2.75 -6.38,-7.02 -4.32,-4.27 -10.82,-10.22 -19.05,-17.33 -16.45,-14.23 -40.16,-32.81 -67.92,-51.09 -27.78,-18.26 -54.25,-32.68 -73.83,-42.14 -9.79,-4.75 -17.82,-8.36 -23.46,-10.63 -5.64,-2.3 -8.81,-3.42 -8.97,-3.08 -0.33,0.72 11.69,6.71 30.75,16.98 19.07,10.26 45.05,25.09 72.65,43.21 27.57,18.16 51.47,36.14 68.44,49.59 16.98,13.44 27.24,22.1 27.77,21.51" /><path
         id="path200"
         style="fill:#ffffff;fill-opacity:1;fill-rule:nonzero;stroke:none"
         d="m 1411.63,1514.09 c -0.1,-0.36 -3.38,0.25 -9.28,1.64 -5.91,1.31 -14.32,3.85 -24.51,7.55 -20.37,7.32 -47.65,20.48 -74.38,40.18 -26.68,19.78 -47.27,41.98 -60.26,59.32 -6.52,8.66 -11.42,15.94 -14.41,21.21 -3.06,5.22 -4.59,8.19 -4.29,8.39 0.76,0.48 7.96,-10.76 21.58,-27.32 13.58,-16.55 34.23,-37.96 60.48,-57.41 26.29,-19.37 52.82,-32.83 72.63,-40.95 19.81,-8.16 32.68,-11.75 32.44,-12.61" /><path
         id="path202"
         style="fill:#ffffff;fill-opacity:1;fill-rule:nonzero;stroke:none"
         d="m 3004.64,1411.13 c 0.04,-0.08 -1.21,-0.74 -3.69,-1.95 -2.72,-1.29 -6.39,-3.02 -11.08,-5.25 -10.03,-4.63 -24.4,-11.26 -42.8,-19.76 -9.34,-4.25 -19.68,-8.99 -31,-14.16 -11.46,-4.85 -24.23,-9.35 -37.79,-14.61 -27.29,-10.03 -57.84,-23.06 -93.14,-32.94 -17.51,-5.38 -35.85,-11.02 -54.95,-16.89 -19.15,-5.74 -39.57,-9.85 -60.44,-15.13 -10.48,-2.51 -21.13,-5.07 -31.95,-7.67 -5.42,-1.25 -10.84,-2.73 -16.38,-3.82 -5.56,-0.99 -11.17,-1.97 -16.82,-2.98 -22.6,-3.99 -45.85,-8.1 -69.7,-12.32 -95.84,-13.83 -202.33,-21.92 -314.17,-18.79 -111.82,4.33 -217.57,19.5 -312.29,39.69 -23.51,5.81 -46.44,11.46 -68.72,16.96 -5.57,1.36 -11.1,2.73 -16.59,4.09 -5.46,1.45 -10.77,3.29 -16.09,4.9 -10.62,3.31 -21.08,6.58 -31.36,9.79 -20.48,6.66 -40.59,12.12 -59.31,19.12 -18.66,7.14 -36.58,13.98 -53.7,20.53 -34.57,12.19 -64.17,27.24 -90.73,39.07 -13.18,6.14 -25.62,11.49 -36.74,17.1 -10.94,5.91 -20.95,11.32 -29.98,16.2 -17.78,9.69 -31.68,17.26 -41.39,22.56 -4.52,2.53 -8.07,4.51 -10.69,5.97 -2.39,1.37 -3.6,2.11 -3.55,2.19 0.04,0.08 1.34,-0.51 3.81,-1.73 2.69,-1.35 6.31,-3.18 10.95,-5.52 9.8,-5.08 23.84,-12.36 41.81,-21.67 9.08,-4.76 19.14,-10.02 30.14,-15.78 11.16,-5.46 23.65,-10.67 36.86,-16.68 26.63,-11.56 56.27,-26.33 90.85,-38.29 17.11,-6.42 35.03,-13.15 53.69,-20.15 18.71,-6.9 38.8,-12.24 59.25,-18.79 10.27,-3.17 20.71,-6.38 31.32,-9.64 5.31,-1.58 10.61,-3.39 16.06,-4.83 5.48,-1.32 11,-2.67 16.56,-4.02 22.24,-5.41 45.12,-10.98 68.58,-16.69 94.52,-19.88 199.95,-34.85 311.44,-39.18 111.49,-3.11 217.67,4.8 313.28,18.33 23.79,4.13 46.99,8.17 69.54,12.08 5.64,0.98 11.23,1.95 16.78,2.9 5.54,1.08 10.95,2.52 16.36,3.75 10.8,2.55 21.42,5.06 31.88,7.53 20.84,5.17 41.24,9.16 60.36,14.79 19.09,5.75 37.42,11.27 54.92,16.53 35.3,9.63 65.86,22.39 93.21,32.15 13.58,5.12 26.38,9.48 37.89,14.19 11.35,5.01 21.76,9.59 31.13,13.73 18.55,8.09 33.05,14.42 43.16,18.84 4.79,2.03 8.53,3.61 11.29,4.78 2.56,1.06 3.89,1.55 3.93,1.47" /><path
         id="path204"
         style="fill:#ffffff;fill-opacity:1;fill-rule:nonzero;stroke:none"
         d="m 3332.78,1693.19 c 0.25,-0.27 -2.86,-3.56 -8.68,-9.29 -5.81,-5.76 -14.43,-13.85 -25.26,-23.65 -21.66,-19.61 -52.44,-45.79 -87.86,-72.9 -35.45,-27.1 -68.77,-49.96 -93.37,-65.73 -12.3,-7.9 -22.37,-14.1 -29.44,-18.2 -7.06,-4.11 -11.04,-6.25 -11.24,-5.94 -0.18,0.31 3.44,3.01 10.16,7.65 7.59,5.22 17.13,11.76 28.48,19.55 24.02,16.52 56.9,39.79 92.24,66.8 35.32,27.04 66.37,52.67 88.61,71.54 10.48,8.92 19.29,16.41 26.31,22.37 6.25,5.28 9.81,8.06 10.05,7.8" /><path
         id="path206"
         style="fill:#ffffff;fill-opacity:1;fill-rule:nonzero;stroke:none"
         d="m 2155.03,585.309 c 0.01,-0.188 -2.5,-0.457 -7.3,-0.821 -5.32,-0.34 -12.3,-0.769 -21.02,-1.308 -9.14,-0.621 -20.32,-1.032 -33.31,-1.27 -12.98,-0.359 -27.78,-0.719 -44.14,-0.551 -32.72,-0.257 -71.66,1.2 -114.85,3.481 -43.17,2.75 -90.56,6.879 -140.12,12.922 -49.54,6.258 -96.52,13.84 -139.05,21.718 -42.45,8.348 -80.57,16.45 -112.24,24.688 -15.9,3.832 -30.15,7.812 -42.66,11.332 -12.54,3.41 -23.28,6.539 -31.98,9.371 -8.32,2.649 -14.99,4.789 -20.06,6.41 -4.57,1.52 -6.94,2.399 -6.89,2.571 0.06,0.179 2.53,-0.372 7.19,-1.571 5.14,-1.383 11.89,-3.191 20.32,-5.472 8.78,-2.52 19.59,-5.36 32.17,-8.508 12.56,-3.242 26.86,-6.949 42.79,-10.539 31.71,-7.782 69.83,-15.492 112.23,-23.571 42.5,-7.589 89.39,-15.023 138.82,-21.273 49.45,-6.008 96.72,-10.277 139.78,-13.289 43.08,-2.539 81.93,-4.379 114.58,-4.59 16.33,-0.41 31.1,-0.301 44.07,-0.219 12.97,-0.031 24.15,0.09 33.28,0.379 8.72,0.153 15.71,0.25 21.04,0.34 4.81,0.02 7.35,-0.059 7.35,-0.23" /><path
         id="path208"
         style="fill:#ffffff;fill-opacity:1;fill-rule:nonzero;stroke:none"
         d="m 2028.53,472.789 c 0,-0.18 -2.15,-0.371 -6.24,-0.57 -4.66,-0.168 -10.6,-0.367 -17.94,-0.617 -7.8,-0.321 -17.34,-0.411 -28.41,-0.211 -11.07,0.089 -23.69,0.148 -37.61,0.839 -27.88,0.801 -61,3.36 -97.69,6.79 -36.67,3.8 -76.88,8.89 -118.91,15.398 -84.05,13.242 -159.45,28.953 -213.84,40.98 -27.2,6.012 -49.15,11.114 -64.29,14.774 -7.12,1.777 -12.89,3.207 -17.41,4.34 -3.96,1.047 -6.03,1.687 -5.99,1.859 0.04,0.18 2.18,-0.121 6.22,-0.84 4.57,-0.883 10.41,-2 17.61,-3.39 15.92,-3.231 37.83,-7.68 64.62,-13.129 54.56,-11.114 129.99,-26.231 213.88,-39.453 41.95,-6.489 82.05,-11.707 118.6,-15.77 36.58,-3.68 69.58,-6.609 97.37,-7.879 13.88,-0.93 26.45,-1.242 37.5,-1.609 11.04,-0.481 20.56,-0.672 28.34,-0.68 7.33,-0.152 13.27,-0.269 17.93,-0.351 4.1,-0.141 6.25,-0.301 6.26,-0.481" /><path
         id="path210"
         style="fill:#ffffff;fill-opacity:1;fill-rule:nonzero;stroke:none"
         d="m 3056.12,694.871 c 0.02,-0.09 -0.72,-0.34 -2.18,-0.73 -1.77,-0.461 -3.91,-1 -6.52,-1.672 -6.19,-1.438 -14.58,-3.399 -25.15,-5.867 -21.87,-5.082 -53.66,-11.762 -93.05,-19.383 -78.78,-15.289 -188.33,-33.098 -310.18,-45.75 -121.89,-12.539 -232.78,-17.539 -313.02,-18.688 -40.12,-0.601 -72.6,-0.57 -95.03,-0.07 -10.87,0.25 -19.48,0.457 -25.83,0.598 -2.69,0.121 -4.9,0.211 -6.72,0.293 -1.51,0.097 -2.29,0.179 -2.29,0.277 0.01,0.09 0.78,0.18 2.3,0.25 1.82,0.062 4.03,0.141 6.72,0.23 6.35,0.102 14.96,0.211 25.82,0.371 22.43,0.129 54.87,0.661 94.95,1.731 80.14,2.098 190.84,7.66 312.57,20.187 121.68,12.641 231.15,29.84 310.03,44.192 39.45,7.148 71.32,13.269 93.3,17.738 10.66,2.07 19.13,3.711 25.36,4.922 2.65,0.461 4.82,0.84 6.63,1.148 1.49,0.231 2.27,0.313 2.29,0.223" /><path
         id="path212"
         style="fill:#ffffff;fill-opacity:1;fill-rule:nonzero;stroke:none"
         d="m 3056.12,556.371 c 0.01,-0.09 -0.83,-0.32 -2.49,-0.703 -1.97,-0.406 -4.4,-0.918 -7.4,-1.547 -6.93,-1.32 -16.47,-3.152 -28.55,-5.461 -24.83,-4.609 -60.8,-11.012 -105.37,-18.14 -44.55,-7.36 -97.76,-14.981 -156.95,-22.77 -59.24,-7.359 -124.5,-14.5 -193.21,-19.82 -68.75,-5.032 -134.4,-7.61 -194.13,-8.141 -59.73,0.332 -113.56,1.641 -158.57,5.781 -11.25,0.942 -21.99,1.598 -32.11,2.66 -10.08,1.211 -19.61,2.348 -28.54,3.418 -8.88,1.071 -17.16,2.071 -24.82,3 -7.61,1.063 -14.52,2.391 -20.75,3.391 -12.12,2.133 -21.69,3.801 -28.64,5.02 -3.01,0.582 -5.45,1.05 -7.42,1.429 -1.67,0.352 -2.52,0.571 -2.5,0.66 0.02,0.09 0.89,0.043 2.59,-0.14 1.99,-0.238 4.46,-0.539 7.51,-0.906 6.98,-0.993 16.59,-2.34 28.76,-4.051 6.25,-0.86 13.16,-2.031 20.78,-2.942 7.65,-0.789 15.94,-1.648 24.82,-2.57 8.93,-0.937 18.44,-1.949 28.52,-3.008 10.11,-0.929 20.84,-1.472 32.08,-2.293 44.94,-3.66 98.66,-4.578 158.26,-4.66 59.61,0.801 125.13,3.512 193.77,8.551 68.6,5.301 133.8,12.289 193.01,19.371 59.16,7.531 112.39,14.77 156.97,21.66 44.63,6.649 80.67,12.5 105.59,16.5 12.15,1.899 21.74,3.399 28.72,4.488 3.03,0.422 5.49,0.762 7.49,1.051 1.69,0.199 2.56,0.262 2.58,0.172" /><path
         id="path214"
         style="fill:#17282f;fill-opacity:1;fill-rule:nonzero;stroke:none"
         d="m 2746.98,1084.63 c 0.06,-0.08 -0.74,-0.84 -2.35,-2.25 -1.85,-1.58 -4.24,-3.64 -7.25,-6.21 -6.71,-5.59 -16.15,-13.46 -28.18,-23.49 -24.8,-20.55 -60.22,-49.89 -103.89,-86.071 C 2517.7,893.84 2397.26,792.559 2265.93,678.75 2134.58,564.871 2017.22,460.02 1932.74,383.629 c -42.01,-38.09 -76.08,-68.988 -99.94,-90.617 -11.63,-10.492 -20.75,-18.711 -27.24,-24.563 -2.98,-2.609 -5.34,-4.691 -7.17,-6.289 -1.64,-1.39 -2.51,-2.082 -2.57,-2.012 -0.06,0.071 0.69,0.883 2.2,2.403 1.74,1.699 3.99,3.898 6.83,6.668 6.32,6.019 15.23,14.492 26.58,25.293 23.14,21.886 56.89,53.289 98.83,91.828 83.86,77.121 200.87,182.43 332.26,296.351 131.37,113.84 252.21,214.707 340.45,286.77 44.11,36.039 79.99,64.999 104.95,84.789 12.29,9.71 21.94,17.33 28.8,22.73 3.14,2.41 5.64,4.33 7.57,5.81 1.73,1.29 2.63,1.91 2.69,1.84" /><path
         id="path216"
         style="fill:#cc4341;fill-opacity:1;fill-rule:nonzero;stroke:none"
         d="m 1913.61,366.281 c 6.18,5.598 12.56,11.391 19.13,17.348 33.45,30.242 72.06,64.949 114.64,102.922 l 20.24,17.847 c 1.88,-0.359 4.18,-0.808 6.97,-1.339 6.95,-1.219 16.52,-2.887 28.64,-5.02 6.23,-1 13.14,-2.328 20.75,-3.391 6.37,-0.769 13.19,-1.597 20.41,-2.468 -73.1,-47.231 -150.34,-89.16 -230.78,-125.899 m 234.57,128.348 c -8.52,0.891 -16.49,1.723 -23.87,2.48 -7.62,0.911 -14.53,2.082 -20.78,2.942 -12.17,1.711 -21.78,3.058 -28.76,4.051 -2.59,0.308 -4.77,0.578 -6.58,0.796 L 2180,603.531 c 1.49,-0.062 3.19,-0.133 5.16,-0.222 6.35,-0.141 14.96,-0.348 25.83,-0.598 11.02,-0.25 24.46,-0.383 40.05,-0.383 13.37,0 28.33,0.102 44.67,0.313 C 2248.79,563.969 2199.53,528 2148.18,494.629 m 32.59,109.582 37.97,33.488 c 15.49,13.531 31.24,27.231 47.19,41.051 5.2,4.512 10.39,9 15.56,13.469 l 209.29,178.59 c 42.21,35.55 80.81,67.793 114.53,95.8 5.01,4.153 9.9,8.2 14.68,12.172 -85.27,-144.09 -193.95,-267.961 -319.83,-372.472 -37.43,-0.969 -67.83,-1.457 -89.17,-1.579 -10.86,-0.16 -19.47,-0.269 -25.82,-0.371 -1.64,-0.05 -3.1,-0.097 -4.4,-0.148" /><path
         id="path218"
         style="fill:#a7a9a8;fill-opacity:1;fill-rule:nonzero;stroke:none"
         d="m 2251.04,602.328 c -15.59,0 -29.03,0.133 -40.05,0.383 -10.87,0.25 -19.48,0.457 -25.83,0.598 -1.97,0.089 -3.67,0.16 -5.16,0.222 l 0.77,0.68 c 1.3,0.051 2.76,0.098 4.4,0.148 6.35,0.102 14.96,0.211 25.82,0.371 21.34,0.122 51.74,0.61 89.17,1.579 -1.48,-1.231 -2.96,-2.45 -4.45,-3.668 -16.34,-0.211 -31.3,-0.313 -44.67,-0.313" /><path
         id="path220"
         style="fill:#a7a9a8;fill-opacity:1;fill-rule:nonzero;stroke:none"
         d="m 2144.39,492.18 c -7.22,0.871 -14.04,1.699 -20.41,2.468 -7.61,1.063 -14.52,2.391 -20.75,3.391 -12.12,2.133 -21.69,3.801 -28.64,5.02 -2.79,0.531 -5.09,0.98 -6.97,1.339 l 0.57,0.5 c 1.81,-0.218 3.99,-0.488 6.58,-0.796 6.98,-0.993 16.59,-2.34 28.76,-4.051 6.25,-0.86 13.16,-2.031 20.78,-2.942 7.38,-0.757 15.35,-1.589 23.87,-2.48 -1.26,-0.82 -2.53,-1.629 -3.79,-2.449" /><path
         id="path222"
         style="fill:#0f191d;fill-opacity:1;fill-rule:nonzero;stroke:none"
         d="m 1908.31,363.871 139.07,122.68 c -42.58,-37.973 -81.19,-72.68 -114.64,-102.922 -6.57,-5.957 -12.95,-11.75 -19.13,-17.348 -1.77,-0.812 -3.53,-1.613 -5.3,-2.41 m 310.43,273.828 33.8,29.821 28.95,24.699 c -5.17,-4.469 -10.36,-8.957 -15.56,-13.469 -15.95,-13.82 -31.7,-27.52 -47.19,-41.051 m 272.04,233.11 131.92,112.55 c -0.9,-1.519 -1.81,-3.058 -2.71,-4.578 -4.78,-3.972 -9.67,-8.019 -14.68,-12.172 -33.72,-28.007 -72.32,-60.25 -114.53,-95.8" /><path
         id="path224"
         style="fill:#cc4341;fill-opacity:1;fill-rule:nonzero;stroke:none"
         d="m 3056.12,882.09 c 5.04,182.97 5.44,426.39 0.97,609.8 75.14,-163.1 73.46,-458.91 -0.97,-609.8" /><path
         id="path226"
         style="fill:#17282f;fill-opacity:1;fill-rule:nonzero;stroke:none"
         d="m 3056.12,1637.91 c 1.44,0 2.6,-364.7 2.6,-814.492 0,-449.938 -1.16,-814.56644 -2.6,-814.56644 -1.44,0 -2.6,364.62844 -2.6,814.56644 0,449.792 1.16,814.492 2.6,814.492" /><path
         id="path228"
         style="fill:#17282f;fill-opacity:1;fill-rule:nonzero;stroke:none"
         d="m 2933.85,2899.88 c 24.62,54.06 49.67,109.77 53.21,169.32 3.54,59.55 -19.43,124.66 -70.28,152.88 -46.99,26.07 -105.7,15.66 -155.76,34.75 -61.76,23.55 -99.67,87.21 -125.91,149.51 -26.24,62.3 12.66,83.92 -32.96,132.85 -60.53,64.92 -100.63,74.97 -179.94,37.91 -55.55,41.26 -249.94,118.1 -306.46,121.11 -83.83,4.47 -179.46,-0.07 -239.37,-58.87 -46.49,-45.62 -76.66,-104.29 -133.2,-136.63 -77.76,-44.49 -174.66,-2.99 -264.25,-4.25 -18.27,-0.26 -39.63,-4.44 -47.54,-20.91 -6.83,-14.25 -0.31,-31 6.2,-45.39 21.97,-48.65 43.93,-97.29 65.9,-145.94 -37.92,-16.56 -83.5,-14.41 -119.7,5.61 1.88,-94.33 38.18,-187.61 100.56,-258.4 -15.63,11.61 -39.8,0.53 -48.1,-17.07 -8.31,-17.61 -5.15,-38.33 -0.5,-57.23 28.58,-115.97 109.3,-218.03 215.57,-272.55 106.27,-54.51 236.26,-60.53 347.12,-16.08 l 492.5,-48.27 c 12.78,-38.78 44.99,-70.08 83.28,-80.94 56.18,39.65 65.53,62.41 65.53,62.41 33.42,-26.06 7,-12.72 33.42,-26.06 60.51,-30.55 151.76,2.04 167.07,69.86 6.41,28.37 14.96,55.53 34.51,74.48 20.01,19.39 48.04,26.4 72.97,38.26 39.25,18.68 72.29,51.03 92.43,90.51 -39.96,0.52 -79.37,18.74 -106.3,49.13" /><path
         id="path230"
         style="fill:#f8a58d;fill-opacity:1;fill-rule:nonzero;stroke:none"
         d="m 2182.9,3618.35 -24.8,-1.25 c -249.39,-12.58 -447.63,-214.44 -455.13,-464.03 -6.99,-232.41 -11.75,-489.37 -3.95,-613.49 16.14,-256.84 275.2,-283.84 275.2,-283.84 0.15,-2.67 -0.85,-41.21 -2.25,-93.94 -4.52,-169.61 131.74,-309.61 301.41,-309.61 164.75,0 298.98,132.24 301.47,296.96 l 14.67,970.11 c 9.55,268.01 -138.44,496.97 -406.62,499.09" /><path
         id="path232"
         style="fill:#f68260;fill-opacity:1;fill-rule:nonzero;stroke:none"
         d="m 1974.22,2255.74 c 0,0 162.47,-1.33 329.63,115.8 0,0 -72.16,-191.83 -329.77,-181.62 l 0.14,65.82" /><path
         id="path234"
         style="fill:#17282f;fill-opacity:1;fill-rule:nonzero;stroke:none"
         d="m 2138.87,3038.15 c 4.98,-5.3 35.12,17.86 78.09,18.05 42.93,0.83 74.57,-21.61 79.21,-16.18 2.28,2.41 -2.81,12.01 -16.59,22.15 -13.57,10.11 -36.68,19.86 -63.45,19.55 -26.76,-0.35 -49.22,-10.59 -62.12,-21.03 -13.16,-10.49 -17.59,-20.17 -15.14,-22.54" /><path
         id="path236"
         style="fill:#17282f;fill-opacity:1;fill-rule:nonzero;stroke:none"
         d="m 2177.24,2958.06 c 0.29,-18.37 16.06,-33.28 35.25,-33.34 19.14,-0.06 34.47,14.74 34.2,33.11 -0.27,18.36 -16.05,33.29 -35.21,33.36 -19.18,0.06 -34.51,-14.77 -34.24,-33.13" /><path
         id="path238"
         style="fill:#17282f;fill-opacity:1;fill-rule:nonzero;stroke:none"
         d="m 2024.56,2741.81 c 0.08,2.26 -24.69,5.26 -64.73,8.34 -10.13,0.53 -19.78,2.05 -21.82,8.85 -2.75,7.17 0.93,18.25 5.22,30.23 8.26,24.89 16.88,50.96 25.95,78.3 35.91,111.42 61.35,202.84 56.85,204.25 -4.5,1.4 -37.25,-87.77 -73.15,-199.2 -8.61,-27.46 -16.85,-53.65 -24.68,-78.68 -3.23,-11.66 -9.14,-24.99 -3.23,-39.86 3.09,-7.39 10.77,-12.49 17.32,-13.9 6.57,-1.65 12.25,-1.47 17.25,-1.52 40.14,-0.13 64.99,0.93 65.02,3.19" /><path
         id="path240"
         style="fill:#17282f;fill-opacity:1;fill-rule:nonzero;stroke:none"
         d="m 2148.81,3206.83 c 3.93,-9.62 38.48,-3.22 79.6,-6.26 41.18,-2.17 74.76,-12.89 79.75,-3.83 2.19,4.33 -4.01,13.25 -17.81,22.07 -13.69,8.79 -35.22,16.73 -59.9,18.31 -24.67,1.54 -46.93,-3.62 -61.5,-10.63 -14.69,-7.01 -21.85,-15.08 -20.14,-19.66" /><path
         id="path242"
         style="fill:#17282f;fill-opacity:1;fill-rule:nonzero;stroke:none"
         d="m 1751.09,3128.81 c 4.33,-7.87 38.04,0 78.68,0.34 40.66,1.07 74.23,-5.62 78.71,2.4 1.97,3.82 -4.57,10.93 -18.59,17.42 -13.89,6.49 -35.48,11.68 -59.85,11.28 -24.37,-0.45 -46.04,-6.4 -60.05,-13.37 -14.14,-6.97 -20.8,-14.32 -18.9,-18.07" /><path
         id="path244"
         style="fill:#f8a58d;fill-opacity:1;fill-rule:nonzero;stroke:none"
         d="m 2578.13,2927.91 c 4.28,2.12 173.95,61.14 177.19,-114.84 3.25,-176 -174.1,-142.95 -174.49,-137.91 -0.4,5.04 -2.7,252.75 -2.7,252.75" /><path
         id="path246"
         style="fill:#f68260;fill-opacity:1;fill-rule:nonzero;stroke:none"
         d="m 2633.35,2742.82 c 0.77,0.58 3.11,-2.09 8.33,-4.37 5.1,-2.21 13.82,-3.65 22.93,-0.04 18.47,7.17 33.57,36.97 33.85,68.7 0.14,16.02 -3.5,31.21 -9.4,43.73 -5.61,12.78 -14.1,21.62 -23.49,23.11 -9.36,1.98 -15.88,-3.74 -17.94,-8.73 -2.27,-4.97 -1.09,-8.46 -2.01,-8.78 -0.49,-0.45 -3.84,2.88 -2.55,10.18 0.66,3.5 2.64,7.7 6.72,11.15 4.16,3.51 10.34,5.38 16.86,4.79 13.59,-0.69 26.04,-12.95 32.53,-26.69 7.25,-13.8 11.71,-30.87 11.54,-48.86 -0.48,-35.48 -18.01,-69 -43.32,-76.82 -12.32,-3.46 -22.71,0.08 -28.12,4.14 -5.53,4.24 -6.53,8.16 -5.93,8.49" /><path
         id="path248"
         style="fill:#17282f;fill-opacity:1;fill-rule:nonzero;stroke:none"
         d="m 2818.31,3207.3 c -35.23,62.84 -42.11,137.02 -60.58,206.66 -18.45,69.64 -55.39,142.18 -122.69,167.9 l -1.54,-0.63 c -60.37,25.85 -135.46,27.91 -186.44,-13.26 -10.34,91.66 -88.81,165.82 -177.48,191.24 -88.67,25.4 -232.04,14.67 -318.37,-17.85 -66.73,-25.13 -131.89,-78.22 -211.4,-156.59 -33.5,-33.02 -64.49,-68.67 -92.16,-106.7 L 1564.7,3240.3 c -8.51,-5.94 -15.99,-13.22 -22.3,-21.42 -31.79,-41.36 24.65,-95.41 64.54,-61.79 l 0.7,0.6 c 7.68,-13.76 13.38,-27.65 19.38,-41.52 l -0.01,-0.33 1.31,-2.62 c 3.78,-8.64 7.7,-17.27 12.49,-25.84 l 0.06,0.58 53.96,-266.03 c 5.41,72.1 5.81,323.29 11.22,395.38 111.49,2.29 213.27,44.99 289.84,126.05 40.41,42.78 72.63,96.78 125.94,121.69 68.74,32.11 149.23,5.81 220.31,-20.69 l -2.98,2.8 c 36.91,-18.07 70.26,-43.32 97.69,-73.9 -19.32,-141.73 -7.78,-287.61 33.8,-424.48 6.26,-20.62 23.65,-63.2 43.57,-71.42 39.15,-16.15 50.68,23.82 74.92,44.65 17.84,15.32 43.85,16.77 72.21,16.05 17.65,43.48 36.49,116.98 52.37,181.37 23.67,-7.77 49.04,-10.31 73.69,-6.59 -7.16,18.29 -14.31,36.58 -21.48,54.86 9.71,-6.44 19.77,-13.05 31.27,-15 11.48,-1.94 24.83,2.05 30.24,12.37 6.99,13.35 -1.76,29.09 -9.13,42.23" /><path
         id="path250"
         style="fill:#33535f;fill-opacity:1;fill-rule:nonzero;stroke:none"
         d="m 2365.7,3540.35 c -0.52,-0.65 10.59,-7.03 25.2,-24.11 14.46,-17 30.46,-46.38 37.44,-86.02 3.59,-19.71 5.64,-41.71 5.09,-65.32 -0.43,-23.62 -2.89,-48.86 -5.3,-75.47 -2.33,-26.61 -4.87,-54.72 -3.82,-84.05 0.52,-14.64 1.95,-29.56 4.78,-44.49 2.9,-14.68 6.38,-30.63 17.13,-43.44 8.56,-10.43 23.14,-15.3 35.92,-12.98 12.86,1.98 24.41,8.55 32.97,17.66 16.94,18.88 21.6,43.22 26.18,64.65 l -5.39,-0.53 c 8.35,-19.55 16.94,-38.86 29.98,-54.42 12.81,-15.65 30.8,-26.22 49.28,-28.3 9.21,-1.03 18.53,0.24 26.54,4.04 8.16,3.75 14.19,10.32 18.36,17.29 4,7.12 6.18,14.98 5.96,22.61 -0.27,7.62 -3.07,14.91 -7.79,20.13 l -2.77,-2.37 c 19.27,-22.96 39.87,-35.54 54.16,-42.57 7.21,-3.52 13,-5.65 16.91,-7.01 3.96,-1.27 6.04,-1.81 6.09,-1.65 0.06,0.17 -1.92,1.02 -5.72,2.59 -3.79,1.65 -9.41,4.07 -16.39,7.82 -13.85,7.48 -33.78,20.35 -52.23,43.13 l -2.77,-2.37 c 8.42,-9.33 8.55,-25.4 0.84,-38.13 -3.88,-6.28 -9.41,-12.12 -16.59,-15.3 -7.14,-3.3 -15.65,-4.4 -24.06,-3.36 -16.96,2.07 -33.73,11.98 -45.72,26.85 -12.28,14.87 -20.6,33.68 -28.86,53.25 l -3.5,8.31 -1.9,-8.84 c -4.59,-21.4 -9.49,-44.76 -24.93,-61.77 -7.65,-8.17 -18.25,-14.1 -29.51,-15.8 -11.28,-1.91 -23.06,2.05 -30.53,11 -9.39,11.08 -13,26.19 -15.8,40.64 -2.78,14.56 -4.21,29.18 -4.77,43.57 -1.12,28.84 1.28,56.77 3.45,83.36 2.25,26.6 4.55,51.96 4.77,75.89 0.33,23.91 -1.97,46.21 -5.9,66.18 -7.62,40.18 -24.56,69.94 -39.83,86.75 -15.42,16.9 -26.97,22.58 -26.97,22.58" /><path
         id="path252"
         style="fill:#33535f;fill-opacity:1;fill-rule:nonzero;stroke:none"
         d="m 1566.8,3308.69 c -0.07,-0.08 0.62,-0.69 2.01,-1.8 1.71,-1.3 3.78,-2.88 6.31,-4.82 2.75,-2.16 6.25,-4.68 10.7,-7.21 4.38,-2.63 9.35,-5.84 15.42,-8.56 23.56,-11.85 61.5,-23.95 109.31,-22.21 47.36,1.59 104.51,17.07 156.06,53.66 52.06,35.69 98.24,88.94 136.4,150.26 19.35,30.63 35.27,62.12 52.69,91.14 17.3,29.04 36.3,55.81 59.06,76.78 22.49,21.08 48.4,36.45 74.89,43.18 13.22,3.61 26.46,4.19 39.07,3.61 12.64,-0.95 24.56,-3.78 35.53,-7.65 21.93,-7.92 39.49,-20.53 52.73,-33.39 13.29,-12.98 22.1,-26.58 28.1,-38.2 11.13,-23.83 11.43,-38.97 12.37,-38.75 0.1,0.02 0.05,0.93 -0.15,2.7 -0.28,2.13 -0.62,4.72 -1.04,7.88 -1.09,6.9 -3.83,16.92 -9.08,29.17 -5.76,11.99 -14.46,26.07 -27.83,39.58 -13.32,13.38 -31.14,26.57 -53.64,34.99 -11.25,4.12 -23.54,7.18 -36.64,8.29 -13.04,0.75 -26.95,0.22 -40.63,-3.41 -27.52,-6.76 -54.32,-22.49 -77.44,-43.95 -23.4,-21.35 -42.84,-48.59 -60.34,-77.81 -17.63,-29.23 -33.55,-60.63 -52.73,-90.98 -37.88,-60.85 -83.39,-113.52 -134.47,-148.89 -50.6,-36.29 -106.41,-51.82 -153.08,-53.98 -47.03,-2.25 -84.53,9.02 -108.13,20.09 -23.78,11.24 -34.97,21 -35.45,20.28" /><path
         id="path254"
         style="fill:#33535f;fill-opacity:1;fill-rule:nonzero;stroke:none"
         d="m 1546,3421.9 c -0.22,-0.36 3,-2.69 9.05,-6.61 5.98,-4.05 15.18,-9.06 26.92,-14.45 11.71,-5.48 26.26,-10.68 42.8,-15.12 16.6,-4.15 35.22,-7.37 54.97,-8.56 19.76,-0.96 38.63,0.21 55.59,2.52 16.91,2.62 31.95,6.2 44.19,10.38 12.25,4.08 21.95,8.07 28.33,11.43 6.44,3.25 9.9,5.21 9.71,5.58 -0.47,1.03 -14.8,-5.94 -39.28,-12.95 -12.2,-3.6 -27.06,-6.69 -43.7,-8.96 -16.67,-1.98 -35.16,-2.96 -54.52,-2.01 -19.34,1.17 -37.59,4.15 -53.96,7.92 -16.28,4.07 -30.72,8.76 -42.46,13.67 -23.57,9.64 -37.06,18.12 -37.64,17.16" /><path
         id="path256"
         style="fill:#17282f;fill-opacity:1;fill-rule:nonzero;stroke:none"
         d="m 1746.96,3030.79 c 4.98,-5.31 35.12,17.86 78.1,18.04 42.92,0.83 74.57,-21.6 79.2,-16.18 2.28,2.42 -2.81,12.01 -16.59,22.15 -13.57,10.11 -36.67,19.87 -63.45,19.55 -26.76,-0.34 -49.22,-10.59 -62.11,-21.03 -13.17,-10.48 -17.59,-20.17 -15.15,-22.53" /><path
         id="path258"
         style="fill:#17282f;fill-opacity:1;fill-rule:nonzero;stroke:none"
         d="m 1807.66,2951.34 c 0.28,-18.36 16.05,-33.27 35.24,-33.33 19.14,-0.07 34.47,14.73 34.2,33.1 -0.27,18.36 -16.05,33.29 -35.21,33.36 -19.18,0.07 -34.51,-14.76 -34.23,-33.13" /><path
         id="path260"
         style="fill:#f68260;fill-opacity:1;fill-rule:nonzero;stroke:none"
         d="m 1995.82,2657.13 c 20.73,7.43 81.8,16.76 103.69,19.18 l 25.57,6.3 c 11.58,-15.87 11.44,-58.39 0.78,-75.01 -11.03,-17.19 -30.82,-27.53 -51.05,-30.3 -14.43,-1.97 -30.27,-0.03 -41.28,9.5 0,0 -31.64,15 -37.71,70.33" /><path
         id="path262"
         style="fill:#17282f;fill-opacity:1;fill-rule:nonzero;stroke:none"
         d="m 2059.68,2579.19 c -0.28,1.61 17.1,-1.61 38.08,12.34 10.2,6.85 20.31,18.21 26.04,33.46 5.78,15.12 7.71,33.78 3.17,51.92 -0.25,0.97 -0.5,1.94 -0.73,2.83 l 4.54,-2.89 c -38.11,-5.89 -72.54,-10.76 -97.47,-13.88 -24.94,-3.12 -40.4,-4.49 -40.57,-3.4 -0.17,1.1 14.98,4.47 39.69,9.05 24.71,4.58 59,10.36 97.1,16.3 l 3.64,0.56 0.91,-3.45 c 0.26,-0.99 0.54,-2.06 0.81,-3.12 5,-20.04 2.62,-40.31 -4.1,-56.7 -6.67,-16.57 -18.42,-28.79 -29.92,-35.55 -11.56,-6.91 -22.54,-8.98 -29.89,-9.07 -7.42,-0.12 -11.36,1.15 -11.3,1.6" /><path
         id="path264"
         style="fill:#17282f;fill-opacity:1;fill-rule:nonzero;stroke:none"
         d="m 2066.69,2578.93 c 1.24,-0.08 2.65,-0.12 4.27,-0.09 5.49,0.07 16.59,1.32 29.28,8.89 12.76,7.5 23.47,20.24 29.39,34.95 7.22,17.6 8.65,37.46 4.05,55.93 l -1.43,5.46 -2.53,-0.39 c -36.83,-5.73 -71.3,-11.52 -97.06,-16.29 -18.31,-3.39 -28.05,-5.5 -33.23,-6.78 5.32,0.34 15.24,1.29 33.72,3.6 24.8,3.1 57.45,7.73 92.43,13.1 l -1.34,5.18 10.02,-6.37 -3.29,-0.51 -2.32,-0.35 c 3.76,-16.71 2.47,-34.63 -3.68,-50.71 -5.27,-14.02 -14.68,-26.11 -26.51,-34.06 -13.02,-8.66 -24.78,-10.82 -31.77,-11.56 z m 3.4,-2.6 c -5.53,0 -10.3,0.8 -11.3,1.93 l -0.38,0.43 0.02,0.41 -0.07,0.43 0.38,0.59 c 0.57,0.73 1.53,0.81 4.12,0.99 5.71,0.42 19.09,1.41 34.21,11.46 6.6,4.43 18.7,14.6 25.56,32.86 6,15.69 7.24,33.17 3.54,49.45 -35.08,-5.39 -67.84,-10.04 -92.71,-13.15 -41.51,-5.2 -41.71,-3.94 -41.96,-2.35 -0.24,1.59 -0.44,2.85 40.7,10.47 25.79,4.77 60.29,10.56 97.14,16.3 l 4.76,0.74 2,-7.66 c 4.74,-19 3.26,-39.41 -4.15,-57.49 -6.12,-15.2 -17.22,-28.39 -30.44,-36.16 -13.18,-7.86 -24.78,-9.17 -30.52,-9.24 l -0.9,-0.01" /><path
         id="path266"
         style="fill:#fafaf9;fill-opacity:1;fill-rule:nonzero;stroke:none"
         d="m 918.43,2544.23 c 0,0 -304.992,-109.9 -454.34,-66.71 -149.348,43.2 -254.313,103.65 -329.172,280.59 -60.5782,143.18 -48.4883,319.06 24.066,456.56 63.496,120.34 176.871,188.18 296.231,253.49 148.234,81.11 349.437,147.87 518.289,154.33 168.836,6.47 277.186,-43.13 401.956,-157.07 124.77,-113.94 191.25,-295.78 147.24,-458.91 -46.65,-172.89 -202.23,-295.66 -365.25,-369.74 0,0 -45.94,-160.37 83.42,-249.06 0,0 -210.86,-52.26 -322.44,156.52" /><path
         id="path268"
         style="fill:#17282f;fill-opacity:1;fill-rule:nonzero;stroke:none"
         d="m 918.43,2544.23 c 0,0 1.199,-1.77 3.508,-5.44 2.359,-3.79 5.785,-9.27 10.269,-16.47 2.27,-3.66 4.805,-7.76 7.602,-12.28 2.929,-4.44 6.789,-8.78 10.613,-13.77 3.898,-4.94 8.105,-10.26 12.605,-15.95 4.633,-5.59 10.52,-10.71 16.231,-16.61 23.242,-22.95 56.472,-47.87 101.402,-63.4 22.15,-8.45 47.38,-13.22 74.27,-15.78 26.9,-2.15 56.06,-1.59 85.58,4.6 l -0.47,-2.62 c -33.98,23.24 -64.16,58.84 -79.28,103.61 -7.94,22.19 -11.9,46.38 -12.77,71.19 -0.83,24.86 1.4,50.41 7.68,75.96 l 0.2,0.81 0.82,0.37 c 45.81,21.01 92.32,46.35 137.7,77.35 45.46,30.82 89.33,68.12 128.18,112.65 5.07,5.38 9.54,11.3 14.15,17.14 4.53,5.91 9.43,11.58 13.71,17.74 8.45,12.4 17.41,24.62 24.79,37.98 8.17,12.9 14.63,26.85 21.55,40.7 3.36,6.96 5.93,14.31 8.95,21.49 l 4.38,10.85 c 1.35,3.68 2.39,7.46 3.61,11.19 10.5,29.63 15.93,61.28 18.74,93.36 2.89,32.16 1.08,65.08 -3.94,97.78 -9.63,65.61 -35.17,130.16 -72.2,188.72 -18.93,29.07 -40.88,56.58 -65.73,81.75 -24.95,25.05 -52.47,48.28 -81.14,70.13 -57.3,43.58 -123.84,78.58 -197.17,92.72 -73.07,14.6 -149.832,12.6 -225.477,1.69 -76.398,-10.96 -150.527,-30.35 -221.652,-54.67 -71.114,-24.39 -139.395,-53.83 -203.469,-88.33 -63.977,-34.74 -126.473,-70.27 -180.914,-114.25 -54.516,-43.61 -99.68,-97.04 -127.879,-157.62 -14.453,-30.06 -25.895,-61.08 -34.621,-92.4 -8.422,-31.42 -14.02,-63.1 -17.149,-94.56 -3.3121,-31.46 -3.2652,-62.75 -1.1168,-93.31 0.8048,-15.34 3.1098,-30.38 5.0548,-45.35 2.848,-14.81 5.242,-29.6 9.219,-43.91 31.164,-113.86 92.371,-214.14 176.3,-271.26 41.563,-28.69 86.075,-48.22 129.176,-62.78 10.774,-3.71 21.442,-7.22 32.071,-10.33 10.523,-3.58 21.14,-5.75 31.589,-7.95 10.348,-2.78 20.942,-3.19 31.239,-4.32 10.289,-1.38 20.507,-1.31 30.543,-1.39 40.129,-0.29 77.488,3.66 111.484,9.07 34.086,5.02 64.883,11.7 92.516,17.86 55.171,12.9 97.379,25.44 125.89,34.2 27.41,8.75 40.074,12.79 43.356,13.84 0,0 -3.59,-1.49 -10.84,-4.05 -7.219,-2.53 -17.985,-6.23 -32.199,-10.79 -28.426,-9.08 -70.571,-21.95 -125.743,-35.17 -27.64,-6.32 -58.457,-13.16 -92.601,-18.34 -34.055,-5.57 -71.508,-9.68 -111.891,-9.53 -10.097,0.05 -20.379,-0.06 -30.773,1.3 -10.403,1.1 -21.07,1.49 -31.582,4.27 -10.613,2.19 -21.403,4.38 -31.922,7.92 -10.664,3.09 -21.383,6.58 -32.207,10.28 -43.305,14.49 -88.184,34.02 -130.207,62.89 -21.004,14.43 -40.66,31.73 -59.242,50.82 -18.348,19.38 -34.77,41.2 -50.02,64.42 -14.445,23.69 -28.422,48.42 -39.82,74.93 -6.274,12.99 -11.238,26.72 -16.582,40.42 -4.442,14.01 -9.422,28.02 -12.723,42.63 -4.027,14.43 -6.473,29.34 -9.367,44.28 -1.9844,15.08 -4.3282,30.26 -5.1641,45.71 -2.211,30.82 -2.293,62.36 1,94.08 3.1211,31.71 8.7231,63.66 17.1831,95.35 8.762,31.6 20.266,62.9 34.825,93.25 28.429,61.26 74.172,115.44 129.074,159.4 54.863,44.38 117.57,80.06 181.613,114.88 64.348,34.68 132.856,64.24 204.223,88.75 71.379,24.41 145.789,43.9 222.59,54.91 76.054,10.96 153.355,13.01 227.255,-1.76 74.16,-14.31 141.54,-49.82 199.21,-93.73 28.91,-22.06 56.39,-45.28 81.64,-70.64 25.1,-25.45 47.25,-53.26 66.34,-82.62 37.35,-59.16 63.08,-124.36 72.76,-190.68 5.04,-33.06 6.83,-66.34 3.87,-98.88 -2.87,-32.44 -8.42,-64.48 -19.07,-94.43 -1.23,-3.77 -2.29,-7.6 -3.65,-11.3 l -4.45,-10.97 c -3.06,-7.26 -5.68,-14.68 -9.08,-21.72 -7,-13.98 -13.55,-28.07 -21.82,-41.07 -7.47,-13.49 -16.52,-25.8 -25.08,-38.29 -4.32,-6.22 -9.27,-11.93 -13.84,-17.88 -4.67,-5.87 -9.19,-11.84 -14.29,-17.26 -39.23,-44.81 -83.44,-82.25 -129.18,-113.14 -45.67,-31.06 -92.42,-56.41 -138.45,-77.39 l 1.01,1.17 c -6.18,-24.88 -8.5,-50.34 -7.72,-74.82 0.79,-24.51 4.64,-48.37 12.4,-70.24 14.77,-44.12 44.3,-79.19 77.78,-102.27 l 2.82,-1.94 -3.29,-0.68 c -30.13,-6.21 -59.34,-6.62 -86.51,-4.36 -27.11,2.68 -52.51,7.62 -74.81,16.24 -45.21,15.87 -78.54,41.18 -101.728,64.43 -5.703,5.97 -11.57,11.15 -16.176,16.81 -4.465,5.76 -8.641,11.14 -12.512,16.13 -3.773,5.04 -7.625,9.47 -10.468,13.9 -2.703,4.52 -5.153,8.62 -7.34,12.28 -4.336,7.3 -7.637,12.86 -9.918,16.7 -2.227,3.78 -3.328,5.8 -3.328,5.8" /><path
         id="path270"
         style="fill:#17282f;fill-opacity:1;fill-rule:nonzero;stroke:none"
         d="m 1090.27,3371.85 c 0.64,-1.3 -163.844,-83.21 -367.325,-182.95 -203.554,-99.78 -369.027,-179.58 -369.664,-178.29 -0.629,1.29 163.817,83.19 367.367,182.96 203.489,99.74 368.992,179.57 369.622,178.28" /><path
         id="path272"
         style="fill:#17282f;fill-opacity:1;fill-rule:nonzero;stroke:none"
         d="m 1158.85,3228.03 c 0.63,-1.29 -163.85,-83.21 -367.334,-182.95 -203.555,-99.77 -369.032,-179.58 -369.661,-178.29 -0.632,1.29 163.817,83.19 367.368,182.96 203.484,99.75 368.987,179.57 369.627,178.28" /><path
         id="path274"
         style="fill:#17282f;fill-opacity:1;fill-rule:nonzero;stroke:none"
         d="m 1221.29,3089.19 c 0.08,-0.16 -2.27,-1.51 -6.81,-3.94 -5,-2.6 -11.65,-6.07 -19.97,-10.41 -17.9,-9.16 -42.97,-21.98 -73.73,-37.73 -62.25,-31.86 -147.932,-76.47 -242.522,-125.87 -94.617,-49.41 -180.617,-93.52 -243.313,-124.55 -31.347,-15.52 -56.785,-27.92 -74.48,-36.27 -8.504,-3.97 -15.297,-7.14 -20.41,-9.52 -4.692,-2.13 -7.192,-3.17 -7.27,-3.01 -0.078,0.17 2.266,1.52 6.805,3.95 5.008,2.6 11.652,6.06 19.976,10.4 17.895,9.16 42.957,21.99 73.719,37.73 62.254,31.86 147.945,76.48 242.567,125.89 94.589,49.4 180.578,93.51 243.268,124.53 31.35,15.52 56.79,27.92 74.49,36.27 8.51,3.97 15.3,7.14 20.41,9.53 4.69,2.13 7.2,3.17 7.27,3" /><path
         id="path276"
         style="fill:#f8a58d;fill-opacity:1;fill-rule:nonzero;stroke:none"
         d="m 1181,1976.05 43.68,-939.85 76.84,-82.661 97.81,-118.769 c 0,0 -97.81,-394.75 -241.04,-429.692 -143.23,-34.93 -298.36,17.961 -343.778,143.723 -45.414,125.758 -22.246,345.801 -8.27,486.789 13.973,141 80.262,911.29 80.262,911.29 l 166.986,68.64 127.51,-39.47" /><path
         id="path278"
         style="fill:#f8a58d;fill-opacity:1;fill-rule:nonzero;stroke:none"
         d="m 1179.77,1965.75 c 0,0 11.34,82.27 0,136.17 -11.35,53.9 -85.12,167.39 -85.12,167.39 0,0 11.35,107.8 0,124.82 -11.34,17.03 -36.88,79.44 -85.11,17.03 0,0 -34.04,73.76 -56.735,79.43 -22.703,5.68 -34.047,0 -34.047,0 l 59.578,79.44 c 0,0 3.387,15.81 0.191,32.47 -3.039,15.8 -17.089,27.11 -33.179,27.11 -9.868,0 -19.243,-4.31 -25.668,-11.8 L 774.066,2448.04 c 0,0 -90.785,-164.55 -87.949,-184.41 2.84,-19.86 53.906,-85.11 53.906,-85.11 0,0 130.504,-178.73 141.852,-212.77 11.348,-34.05 5.676,-73.77 5.676,-73.77 l 292.219,73.77" /><path
         id="path280"
         style="fill:#f68260;fill-opacity:1;fill-rule:nonzero;stroke:none"
         d="m 815.973,2300.73 c -0.664,0.14 1.054,12.52 5.007,32.37 4.079,19.76 10.364,47.33 23.434,75.68 13.082,28.37 31.75,50.6 47.965,63.06 8.055,6.32 15.211,10.55 20.359,12.99 5.145,2.46 8.157,3.42 8.282,3.13 0.46,-0.87 -11.172,-5.88 -26.293,-18.95 -15.196,-12.86 -32.801,-34.72 -45.59,-62.43 -12.789,-27.71 -19.59,-54.81 -24.567,-74.3 -4.851,-19.56 -7.855,-31.71 -8.597,-31.55" /><path
         id="path282"
         style="fill:#f68260;fill-opacity:1;fill-rule:nonzero;stroke:none"
         d="m 944.391,2295.23 c -0.633,0.14 0.214,7.43 3.32,18.86 3.086,11.41 8.723,26.88 17.234,42.86 8.551,15.97 18.282,29.25 26.059,38.17 7.766,8.93 13.356,13.69 13.826,13.24 1.22,-1.08 -18.662,-22.43 -35.287,-53.86 -16.883,-31.29 -23.574,-59.69 -25.152,-59.27" /><path
         id="path284"
         style="fill:#f68260;fill-opacity:1;fill-rule:nonzero;stroke:none"
         d="m 1090.34,2274.12 c -1.28,-0.67 -2.8,-0.29 -3.4,0.85 -0.6,1.15 -0.05,2.62 1.22,3.29 1.27,0.67 2.79,0.28 3.39,-0.86 0.6,-1.14 0.06,-2.61 -1.21,-3.28" /><path
         id="path286"
         style="fill:#f68260;fill-opacity:1;fill-rule:nonzero;stroke:none"
         d="m 1088.79,2228.28 c -1.43,0.18 -0.53,17.27 2.01,38.18 1.16,9.6 2.47,18.33 3.67,24.86 l 3.51,-1.4 c -5.17,-6.18 -8.71,-9.78 -9.34,-9.32 -0.62,0.47 1.8,4.91 6.2,11.64 l 3.95,6.06 -0.44,-7.46 c -0.4,-6.62 -1.22,-15.41 -2.38,-25 -2.54,-20.91 -5.75,-37.73 -7.18,-37.56" /><path
         id="path288"
         style="fill:#f68260;fill-opacity:1;fill-rule:nonzero;stroke:none"
         d="m 1194.07,1667.34 c 0.09,0.01 0.24,-0.8 0.45,-2.38 0.22,-1.88 0.48,-4.17 0.8,-6.99 0.61,-6.59 1.46,-15.58 2.52,-26.95 1.79,-23.43 4.06,-57.36 6.36,-99.32 4.63,-83.89 9.68,-199.86 14.46,-327.96 4.79,-128.14 8.46,-244.162 10.78,-328.131 1.02,-41.66 1.85,-75.519 2.44,-99.468 0.15,-11.403 0.28,-20.43 0.37,-27.051 -0.02,-2.84 -0.03,-5.141 -0.04,-7.039 -0.04,-1.59 -0.1,-2.403 -0.19,-2.41 -0.09,0 -0.2,0.808 -0.34,2.398 -0.13,1.883 -0.29,4.191 -0.48,7.02 -0.33,6.609 -0.78,15.621 -1.35,27.019 -0.99,23.93 -2.37,57.774 -4.09,99.402 -3.16,84.348 -7.5,200.14 -12.3,328.07 -5.05,127.88 -9.61,243.63 -12.94,327.98 -1.96,41.6 -3.57,75.43 -4.7,99.35 -0.65,11.39 -1.17,20.4 -1.55,27 -0.11,2.84 -0.2,5.14 -0.28,7.04 -0.03,1.59 0,2.41 0.08,2.42" /><path
         id="path290"
         style="fill:#f8a58d;fill-opacity:1;fill-rule:nonzero;stroke:none"
         d="m 3955.65,1717.04 c 0,0 -223.97,-860.259 -261.45,-959.81 -74.11,-196.871 -124.7,-290.519 -208.57,-339.652 -91.69,-53.707 -255.66,-23.109 -294.37,64.543 -35.43,80.231 -129.36,414.328 -129.36,414.328 l 287.62,103.741 343.1,718.89 263.03,-2.04" /><path
         id="path292"
         style="fill:#f8a58d;fill-opacity:1;fill-rule:nonzero;stroke:none"
         d="m 4467.72,2121.08 c 14.06,-10.18 -288.16,-274.71 -288.16,-274.71 l -223.91,-129.33 -73.78,-274.77 -233.97,144.45 c 0,0 84.71,274.02 124.06,292.89 68.65,32.92 81.86,143.25 106.41,139.15 24.56,-4.09 35.26,-3.63 27.08,-44.56 -8.18,-40.92 -11.46,-59.03 -11.46,-59.03 l 258.59,74.94 c 0,0 143.24,139.16 188.26,130.97 25.99,-4.72 29.05,-8.19 29.05,-8.19 0,0 43.5,47.51 97.83,8.19" /><path
         id="path294"
         style="fill:#f68260;fill-opacity:1;fill-rule:nonzero;stroke:none"
         d="m 4152.58,1990.11 c 0.11,-0.34 -4.24,-1.99 -12.17,-4.7 -8.95,-2.92 -20.25,-6.61 -33.73,-11 -29.61,-9.26 -68.58,-21.44 -111.68,-34.9 -43.13,-13.36 -82.14,-25.45 -111.77,-34.63 -13.51,-4.22 -24.85,-7.76 -33.83,-10.56 -7.98,-2.52 -12.47,-3.76 -12.59,-3.42 -0.12,0.33 4.12,2.22 11.91,5.33 7.81,3.05 19.2,7.26 33.36,12.14 28.32,9.83 67.71,22.59 111.38,36.12 43.67,13.49 83.35,25.23 112.16,33.43 14.41,4.12 26.1,7.33 34.2,9.44 8.12,2.11 12.66,3.1 12.76,2.75" /><path
         id="path296"
         style="fill:#f68260;fill-opacity:1;fill-rule:nonzero;stroke:none"
         d="m 4196.61,1917.63 c -0.26,0.24 2.09,3.18 6.56,8.29 4.48,5.11 11.08,12.38 19.31,21.29 16.47,17.81 39.46,42.18 65.1,68.86 25.28,26.05 48.13,49.61 65.91,67.92 7.9,8.93 12.3,17.71 12.97,24.23 0.84,6.53 -1.06,10.09 -0.5,10.24 0.16,0.07 0.62,-0.76 1.36,-2.45 0.58,-1.72 1.34,-4.41 1.16,-7.95 -0.07,-7.16 -4.36,-16.91 -12.17,-26.43 -16.19,-18.41 -39.39,-42.34 -64.97,-69.17 -25.64,-26.68 -49.06,-50.64 -66.2,-67.8 -8.58,-8.58 -15.58,-15.47 -20.5,-20.13 -4.92,-4.68 -7.77,-7.15 -8.03,-6.9" /><path
         id="path298"
         style="fill:#f68260;fill-opacity:1;fill-rule:nonzero;stroke:none"
         d="m 3406.96,1120.53 c 1.31,-0.58 -36.27,-89.03 -83.92,-197.53 -47.68,-108.539 -87.39,-196.039 -88.7,-195.461 -1.31,0.582 36.26,89.012 83.93,197.551 47.66,108.51 87.38,196.02 88.69,195.44" /><path
         id="path300"
         style="fill:#17282f;fill-opacity:1;fill-rule:nonzero;stroke:none"
         d="M 4402.14,8.85156 C 4402.14,7.41797 3416.6,6.25 2201.17,6.25 985.316,6.25 0,7.41797 0,8.85156 c 0,1.43754 985.316,2.60934 2201.17,2.60934 1215.43,0 2200.97,-1.1718 2200.97,-2.60934" /><path
         id="path302"
         style="fill:#f2575d;fill-opacity:1;fill-rule:nonzero;stroke:none"
         d="m 3627.25,2629.47 -3.61,-399.54 148.68,-1.34 3.59,399.54 -148.66,1.34" /><path
         id="path304"
         style="fill:#cc4341;fill-opacity:1;fill-rule:nonzero;stroke:none"
         d="m 3772.32,2228.59 -148.68,1.34 3.61,399.54 148.66,-1.34 -3.59,-399.54" /><path
         id="path306"
         style="fill:#f2575d;fill-opacity:1;fill-rule:nonzero;stroke:none"
         d="m 3587.08,2629.83 -3.6,-399.54 148.67,-1.34 3.6,399.54 -148.67,1.34" /><path
         id="path308"
         style="fill:#ffffff;fill-opacity:1;fill-rule:nonzero;stroke:none"
         d="m 3690.25,2532.16 c -0.17,-18.52 -15.33,-33.41 -33.85,-33.24 -18.53,0.17 -33.41,15.32 -33.24,33.85 0.16,18.52 15.32,33.41 33.84,33.24 18.53,-0.17 33.41,-15.32 33.25,-33.85" /><path
         id="path310"
         style="fill:#f2575d;fill-opacity:1;fill-rule:nonzero;stroke:none"
         d="m 3775.12,2568.03 c 1.12,-0.79 -7.05,-14.25 -18.24,-30.06 -11.21,-15.82 -21.19,-27.99 -22.3,-27.2 -1.12,0.79 7.05,14.25 18.24,30.06 11.2,15.81 21.18,27.99 22.3,27.2" /><path
         id="path312"
         style="fill:#f2575d;fill-opacity:1;fill-rule:nonzero;stroke:none"
         d="m 3774.73,2523.83 c 1.11,-0.79 -7.06,-14.26 -18.25,-30.07 -11.21,-15.81 -21.19,-27.98 -22.3,-27.19 -1.12,0.79 7.05,14.25 18.24,30.06 11.2,15.81 21.18,27.99 22.31,27.2" /><path
         id="path314"
         style="fill:#f2575d;fill-opacity:1;fill-rule:nonzero;stroke:none"
         d="m 3774.33,2479.63 c 1.11,-0.8 -7.05,-14.26 -18.25,-30.07 -11.2,-15.81 -21.18,-27.98 -22.3,-27.19 -1.11,0.79 7.05,14.25 18.25,30.06 11.19,15.81 21.17,27.99 22.3,27.2" /><path
         id="path316"
         style="fill:#f2575d;fill-opacity:1;fill-rule:nonzero;stroke:none"
         d="m 3773.93,2435.42 c 1.12,-0.79 -7.05,-14.25 -18.25,-30.06 -11.2,-15.82 -21.18,-27.99 -22.3,-27.2 -1.11,0.79 7.05,14.26 18.25,30.07 11.19,15.81 21.18,27.98 22.3,27.19" /><path
         id="path318"
         style="fill:#f2575d;fill-opacity:1;fill-rule:nonzero;stroke:none"
         d="m 3773.53,2391.22 c 1.12,-0.79 -7.05,-14.25 -18.25,-30.06 -11.2,-15.81 -21.18,-27.99 -22.3,-27.2 -1.11,0.79 7.05,14.25 18.25,30.07 11.19,15.81 21.18,27.99 22.3,27.19" /><path
         id="path320"
         style="fill:#f2575d;fill-opacity:1;fill-rule:nonzero;stroke:none"
         d="m 3773.13,2347.02 c 1.12,-0.79 -7.05,-14.25 -18.25,-30.06 -11.2,-15.82 -21.18,-27.99 -22.29,-27.2 -1.12,0.79 7.05,14.25 18.24,30.06 11.2,15.81 21.18,27.99 22.3,27.2" /><path
         id="path322"
         style="fill:#f2575d;fill-opacity:1;fill-rule:nonzero;stroke:none"
         d="m 3772.74,2302.82 c 1.11,-0.79 -7.07,-14.26 -18.26,-30.06 -11.2,-15.82 -21.18,-28 -22.29,-27.2 -1.12,0.79 7.05,14.25 18.25,30.06 11.19,15.81 21.17,27.99 22.3,27.2" /><path
         id="path324"
         style="fill:#f2575d;fill-opacity:1;fill-rule:nonzero;stroke:none"
         d="m 3775.07,2607.02 c 1.11,-0.8 -7.05,-14.25 -18.25,-30.06 -11.19,-15.82 -21.18,-27.99 -22.3,-27.2 -1.12,0.79 7.05,14.25 18.25,30.06 11.2,15.81 21.18,27.99 22.3,27.2" /><path
         id="path326"
         style="fill:#f2575d;fill-opacity:1;fill-rule:nonzero;stroke:none"
         d="m 3760.11,2628.27 c 1.11,-0.79 -3.35,-9.02 -9.98,-18.38 -6.62,-9.36 -12.9,-16.3 -14.03,-15.51 -1.11,0.79 3.35,9.02 9.98,18.38 6.63,9.36 12.91,16.3 14.03,15.51" /><path
         id="path328"
         style="fill:#f2575d;fill-opacity:1;fill-rule:nonzero;stroke:none"
         d="m 3847.69,2259.26 11.25,352.98 c 0,0 78.75,14.56 149.76,120.78 46.99,70.29 30.58,145.37 39.77,176.33 5.61,18.93 50.32,14.71 69.91,12.25 18.56,-2.32 49.18,-12.94 61.82,-42.45 23.41,-54.69 -11.22,-184.75 -11.22,-184.75 0,0 -14.84,-26.41 22.32,-26.75 l 132.57,-1.19 c 17.19,-0.16 34.05,-5.96 46.99,-17.28 11.36,-9.94 20.92,-24.98 18.97,-47.04 -4.43,-50.4 -31.18,-72.73 -31.28,-83.35 -0.09,-10.61 14.34,-29.33 3.44,-59.76 -10.89,-30.44 -17.5,-27.72 -17.63,-42.32 -0.13,-14.61 -3.12,-51.74 -12.62,-74.23 -9.49,-22.48 -20.21,-33 -20.21,-33 0,0 5.14,-48.66 -9.98,-75.58 -19.8,-35.3 -107.54,-58.07 -143.51,-41.19 -16.82,7.9 -95.56,27.41 -132.64,37.04 -37.08,9.63 -141.72,46.44 -177.71,29.51" /><path
         id="path330"
         style="fill:#cc4341;fill-opacity:1;fill-rule:nonzero;stroke:none"
         d="m 4189.8,2187.03 c -12.37,0 -23.45,1.78 -31.76,5.68 -16.82,7.9 -95.56,27.41 -132.64,37.04 -30.31,7.87 -105.75,33.9 -151.95,33.9 -10.32,0 -19.19,-1.3 -25.76,-4.39 l 11.25,352.98 c 0,0 78.75,14.56 149.76,120.78 46.99,70.29 30.58,145.37 39.77,176.33 3.41,11.49 21.24,14.45 39.1,14.45 11.55,0 23.12,-1.23 30.81,-2.2 18.56,-2.32 49.18,-12.94 61.82,-42.45 5.92,-13.83 8.13,-32.49 8.12,-52.64 -0.01,-59.52 -19.34,-132.11 -19.34,-132.11 0,0 -2.93,-5.21 -2.93,-11.04 0.01,-7.28 4.6,-15.52 25.25,-15.71 l 132.57,-1.19 c 17.19,-0.16 34.05,-5.96 46.99,-17.28 10.38,-9.09 19.26,-22.43 19.23,-41.51 -0.01,-1.79 -0.09,-3.63 -0.26,-5.53 -4.43,-50.4 -31.18,-72.73 -31.28,-83.35 0,-0.04 0,-0.08 0,-0.12 0.02,-7.72 7.53,-19.67 7.52,-37.23 -0.01,-6.64 -1.1,-14.09 -4.08,-22.41 -10.89,-30.44 -17.5,-27.72 -17.63,-42.32 -0.13,-14.61 -3.12,-51.74 -12.62,-74.23 -9.49,-22.48 -20.21,-33 -20.21,-33 v 0 0 c 0,0 0.84,-7.96 0.85,-19.21 0,-16.58 -1.82,-40.33 -10.83,-56.37 -15.22,-27.14 -70.61,-46.87 -111.75,-46.87" /><path
         id="path332"
         style="fill:#f2575d;fill-opacity:1;fill-rule:nonzero;stroke:none"
         d="m 3800.19,2255.67 3.22,357.07 c 0,0 78.75,14.56 149.76,120.78 47,70.29 68.41,127.22 77.6,158.18 5.62,18.93 23.9,31.6 43.48,29.15 18.56,-2.33 40.85,-9.83 53.49,-39.33 23.41,-54.69 -14.29,-186.61 -14.29,-186.61 0,0 -14.84,-26.42 22.33,-26.76 l 132.56,-1.19 c 17.19,-0.15 34.05,-5.96 46.99,-17.28 11.37,-9.94 20.92,-24.98 18.98,-47.03 -4.44,-50.41 -31.18,-72.73 -31.28,-83.35 -0.1,-10.62 14.33,-29.34 3.44,-59.77 -10.89,-30.43 -17.5,-27.72 -17.64,-42.32 -0.13,-14.6 -3.12,-51.75 -12.62,-74.23 -9.49,-22.48 -20.2,-33.01 -20.2,-33.01 0,0 3.55,-47.82 -9.98,-75.57 -13.52,-27.76 -69.41,-41.86 -87.99,-41.69 -18.59,0.17 -151.09,27.91 -188.17,37.54 -37.08,9.63 -133.69,42.36 -169.68,25.42" /><path
         id="path334"
         style="fill:#f2575d;fill-opacity:1;fill-rule:nonzero;stroke:none"
         d="m 4181.98,2765.58 c 1,-0.88 -12,-17.12 -30.29,-35.04 -18.26,-17.97 -34.74,-30.66 -35.61,-29.65 -0.91,1.06 14.01,15.35 32.13,33.19 18.16,17.79 32.72,32.44 33.77,31.5" /><path
         id="path336"
         style="fill:#f2575d;fill-opacity:1;fill-rule:nonzero;stroke:none"
         d="m 4189.55,2813.27 c 1.05,-0.87 -10.81,-15.91 -28.76,-30.9 -17.9,-14.91 -32.89,-26.13 -33.75,-25.2 -0.99,1.09 12.76,14.17 30.53,28.97 17.72,14.81 30.93,28.03 31.98,27.13" /><path
         id="path338"
         style="fill:#f2575d;fill-opacity:1;fill-rule:nonzero;stroke:none"
         d="m 4186.31,2856.36 c 0.96,-0.73 -8.17,-13.66 -23.84,-24.93 -15.53,-10.82 -27.54,-19.93 -28.47,-18.98 -1,1.01 10.02,12.17 25.53,22.97 15.14,10.87 25.62,21.96 26.78,20.94" /><path
         id="path340"
         style="fill:#f2575d;fill-opacity:1;fill-rule:nonzero;stroke:none"
         d="m 4172.03,2892.4 c 0.88,-1.05 -7.01,-9.13 -17.63,-18.05 -10.62,-8.91 -19.95,-15.29 -20.82,-14.24 -0.88,1.05 7.01,9.13 17.63,18.05 10.62,8.91 19.94,15.29 20.82,14.24" /><path
         id="path342"
         style="fill:#f2575d;fill-opacity:1;fill-rule:nonzero;stroke:none"
         d="m 4145.29,2913.82 c 0.71,-1.18 -4.25,-5.71 -11.06,-10.12 -6.81,-4.4 -12.97,-7.07 -13.76,-5.95 -0.79,1.11 4.16,5.64 11.06,10.12 6.91,4.47 13.07,7.13 13.76,5.95" /><path
         id="path344"
         style="fill:#f2575d;fill-opacity:1;fill-rule:nonzero;stroke:none"
         d="m 4171.07,2702.74 c 0.87,-1.05 -7.51,-9.56 -18.74,-19.01 -11.24,-9.46 -21.06,-16.27 -21.94,-15.22 -0.88,1.05 7.51,9.56 18.74,19.01 11.23,9.46 21.06,16.27 21.94,15.22" /><path
         id="path346"
         style="fill:#f2575d;fill-opacity:1;fill-rule:nonzero;stroke:none"
         d="m 4385.7,2576.3 c 0.77,-1.14 -16.91,-14.35 -39.47,-29.5 -22.57,-15.17 -41.48,-26.53 -42.24,-25.39 -0.77,1.13 16.9,14.34 39.48,29.51 22.56,15.15 41.47,26.52 42.23,25.38" /><path
         id="path348"
         style="fill:#f2575d;fill-opacity:1;fill-rule:nonzero;stroke:none"
         d="m 4384.16,2636.85 c 0.76,-1.13 -9.51,-9.4 -22.95,-18.47 -13.45,-9.07 -24.96,-15.51 -25.72,-14.37 -0.77,1.14 9.5,9.41 22.95,18.48 13.44,9.07 24.95,15.5 25.72,14.36" /><path
         id="path350"
         style="fill:#f2575d;fill-opacity:1;fill-rule:nonzero;stroke:none"
         d="m 4364.65,2489.83 c 0.66,-1.24 -13.12,-9.81 -29.67,-20.92 -16.59,-11.06 -29.76,-20.53 -30.65,-19.44 -0.86,1.02 11.07,12.34 27.9,23.57 16.78,11.26 31.8,17.97 32.42,16.79" /><path
         id="path352"
         style="fill:#f2575d;fill-opacity:1;fill-rule:nonzero;stroke:none"
         d="m 4344.67,2421.21 c 0.81,-1.1 -11.51,-11.55 -27.52,-23.34 -16.02,-11.79 -29.65,-20.45 -30.46,-19.35 -0.82,1.11 11.5,11.56 27.52,23.35 16.01,11.79 29.65,20.45 30.46,19.34" /><path
         id="path354"
         style="fill:#f2575d;fill-opacity:1;fill-rule:nonzero;stroke:none"
         d="m 4328.46,2339.97 c 0.87,-1 -12.75,-14.18 -31.82,-27.57 -19.04,-13.45 -36.04,-21.82 -36.69,-20.66 -0.7,1.22 15.01,11.42 33.83,24.71 18.86,13.24 33.76,24.59 34.68,23.52" /><path
         id="path356"
         style="fill:#f2575d;fill-opacity:1;fill-rule:nonzero;stroke:none"
         d="m 4310.82,2271.66 c 0.93,-1.05 -15.3,-16.05 -37.52,-31.58 -22.12,-15.7 -41.71,-25.91 -42.39,-24.69 -0.66,1.17 17.57,13.16 39.54,28.74 22.07,15.43 39.5,28.55 40.37,27.53" /><path
         id="path358"
         style="fill:#17282f;fill-opacity:1;fill-rule:nonzero;stroke:none"
         d="m 4249.88,3241.59 51.16,256.73 -95.53,19.04 -51.15,-256.74 95.52,-19.03" /><path
         id="path360"
         style="fill:#33535f;fill-opacity:1;fill-rule:nonzero;stroke:none"
         d="m 4275.69,3236.44 51.16,256.74 -95.53,19.03 -51.15,-256.73 95.52,-19.04" /><path
         id="path362"
         style="fill:#ffffff;fill-opacity:1;fill-rule:nonzero;stroke:none"
         d="m 4221.23,3311.92 c 2.37,11.91 13.95,19.63 25.85,17.26 11.91,-2.37 19.63,-13.95 17.26,-25.85 -2.38,-11.91 -13.95,-19.63 -25.85,-17.26 -11.91,2.37 -19.63,13.95 -17.26,25.85" /><path
         id="path364"
         style="fill:#33535f;fill-opacity:1;fill-rule:nonzero;stroke:none"
         d="m 4162.21,3299.21 c -0.62,0.64 6.29,8.31 15.42,17.12 9.14,8.81 17.06,15.43 17.68,14.78 0.62,-0.65 -6.29,-8.31 -15.43,-17.12 -9.13,-8.81 -17.05,-15.43 -17.67,-14.78" /><path
         id="path366"
         style="fill:#33535f;fill-opacity:1;fill-rule:nonzero;stroke:none"
         d="m 4167.87,3327.61 c -0.62,0.65 6.28,8.31 15.42,17.12 9.14,8.81 17.05,15.43 17.68,14.78 0.62,-0.64 -6.28,-8.31 -15.42,-17.12 -9.14,-8.81 -17.05,-15.42 -17.68,-14.78" /><path
         id="path368"
         style="fill:#33535f;fill-opacity:1;fill-rule:nonzero;stroke:none"
         d="m 4173.53,3356.02 c -0.62,0.64 6.29,8.3 15.42,17.11 9.14,8.82 17.06,15.43 17.68,14.79 0.62,-0.65 -6.29,-8.31 -15.43,-17.13 -9.13,-8.81 -17.05,-15.42 -17.67,-14.77" /><path
         id="path370"
         style="fill:#33535f;fill-opacity:1;fill-rule:nonzero;stroke:none"
         d="m 4179.19,3384.42 c -0.62,0.65 6.28,8.31 15.42,17.12 9.14,8.81 17.05,15.43 17.68,14.78 0.62,-0.65 -6.28,-8.31 -15.42,-17.12 -9.14,-8.81 -17.05,-15.43 -17.68,-14.78" /><path
         id="path372"
         style="fill:#33535f;fill-opacity:1;fill-rule:nonzero;stroke:none"
         d="m 4184.84,3412.82 c -0.61,0.65 6.29,8.31 15.42,17.12 9.15,8.81 17.07,15.43 17.68,14.79 0.63,-0.66 -6.28,-8.32 -15.42,-17.13 -9.13,-8.81 -17.05,-15.42 -17.68,-14.78" /><path
         id="path374"
         style="fill:#33535f;fill-opacity:1;fill-rule:nonzero;stroke:none"
         d="m 4190.51,3441.23 c -0.63,0.65 6.28,8.31 15.42,17.12 9.14,8.81 17.05,15.42 17.67,14.78 0.63,-0.65 -6.27,-8.31 -15.42,-17.13 -9.14,-8.8 -17.05,-15.42 -17.67,-14.77" /><path
         id="path376"
         style="fill:#33535f;fill-opacity:1;fill-rule:nonzero;stroke:none"
         d="m 4196.16,3469.63 c -0.62,0.65 6.29,8.31 15.42,17.12 9.14,8.81 17.06,15.43 17.69,14.78 0.61,-0.64 -6.29,-8.31 -15.43,-17.12 -9.13,-8.81 -17.05,-15.43 -17.68,-14.78" /><path
         id="path378"
         style="fill:#33535f;fill-opacity:1;fill-rule:nonzero;stroke:none"
         d="m 4157.48,3274.11 c -0.62,0.64 6.28,8.31 15.42,17.11 9.14,8.82 17.05,15.43 17.68,14.78 0.62,-0.64 -6.28,-8.31 -15.42,-17.11 -9.14,-8.81 -17.05,-15.43 -17.68,-14.78" /><path
         id="path380"
         style="fill:#33535f;fill-opacity:1;fill-rule:nonzero;stroke:none"
         d="m 4164.51,3258.6 c -0.62,0.64 3.26,5.39 8.67,10.61 5.41,5.21 10.3,8.91 10.92,8.27 0.63,-0.65 -3.25,-5.4 -8.66,-10.62 -5.41,-5.21 -10.3,-8.91 -10.93,-8.26" /><path
         id="path382"
         style="fill:#17282f;fill-opacity:1;fill-rule:nonzero;stroke:none"
         d="M 4153.24,3506.83 4102.86,3281 c 0,0 -52.47,0.25 -111.17,-59.44 -38.84,-39.51 -37.44,-89.84 -47.15,-108.65 -5.93,-11.5 -34.19,-3.31 -46.5,0.66 -11.66,3.77 -30.07,14.34 -34.6,34.88 -8.39,38.07 29.8,117.55 29.8,117.55 0,0 12.79,15.19 -11.1,19.95 l -85.19,16.97 c -11.04,2.2 -21.18,8 -28.12,16.87 -6.1,7.79 -10.42,18.64 -6.48,32.59 9.02,31.91 28.97,43.01 30.33,49.83 1.36,6.82 -5.65,20.64 5.08,38.89 10.74,18.26 14.66,15.7 16.54,25.09 1.86,9.38 8.33,32.92 17.19,46.24 8.86,13.3 17.05,18.77 17.05,18.77 0,0 2.63,31.94 15.65,47.43 17.07,20.3 76.33,24.23 97.41,8.97 9.87,-7.14 58.16,-29.33 80.85,-40.05 22.7,-10.73 85.55,-47.22 110.79,-40.72" /><path
         id="path384"
         style="fill:#33535f;fill-opacity:1;fill-rule:nonzero;stroke:none"
         d="m 4184.26,3503.33 -45.71,-229.44 c 0,0 -52.48,0.25 -111.18,-59.44 -38.83,-39.5 -59.58,-73.53 -69.28,-92.34 -5.93,-11.5 -19.24,-17.42 -31.55,-13.44 -11.67,3.76 -25.09,11.31 -29.62,31.84 -8.38,38.07 32.01,118.38 32.01,118.38 0,0 12.78,15.19 -11.11,19.95 l -85.18,16.97 c -11.05,2.2 -21.19,8 -28.14,16.87 -6.09,7.79 -10.41,18.64 -6.46,32.59 9.01,31.91 28.96,43 30.32,49.83 1.36,6.82 -5.64,20.63 5.09,38.89 10.73,18.26 14.66,15.71 16.53,25.09 1.87,9.38 8.33,32.93 17.19,46.24 8.86,13.31 17.04,18.77 17.04,18.77 0,0 3.56,31.22 15.66,47.43 12.1,16.21 49.79,18.46 61.73,16.08 11.95,-2.38 93.84,-36.44 116.54,-47.16 22.69,-10.73 80.87,-43.61 106.12,-37.11" /><path
         id="path386"
         style="fill:#33535f;fill-opacity:1;fill-rule:nonzero;stroke:none"
         d="m 3876.17,3221.77 c -0.53,0.69 9.83,9.56 23.78,18.86 13.96,9.33 26.12,15.49 26.55,14.73 0.45,-0.8 -10.89,-8.17 -24.74,-17.43 -13.86,-9.23 -25.02,-16.89 -25.59,-16.16" /><path
         id="path388"
         style="fill:#33535f;fill-opacity:1;fill-rule:nonzero;stroke:none"
         d="m 3865.48,3192.01 c -0.58,0.68 8.9,8.91 22.28,16.37 13.34,7.41 24.37,12.8 24.81,12.09 0.51,-0.82 -9.94,-7.56 -23.19,-14.91 -13.23,-7.37 -23.34,-14.26 -23.9,-13.55" /><path
         id="path390"
         style="fill:#33535f;fill-opacity:1;fill-rule:nonzero;stroke:none"
         d="m 3862.3,3163.87 c -0.53,0.59 6.92,7.79 18.38,13.14 11.32,5.06 20.17,9.46 20.66,8.73 0.52,-0.77 -7.95,-6.61 -19.25,-11.66 -11.07,-5.15 -19.18,-11 -19.79,-10.21" /><path
         id="path392"
         style="fill:#33535f;fill-opacity:1;fill-rule:nonzero;stroke:none"
         d="m 3867.08,3138.92 c -0.44,0.79 5.63,5.02 13.56,9.47 7.92,4.44 14.7,7.4 15.14,6.62 0.43,-0.78 -5.63,-5.02 -13.56,-9.46 -7.92,-4.44 -14.7,-7.41 -15.14,-6.63" /><path
         id="path394"
         style="fill:#33535f;fill-opacity:1;fill-rule:nonzero;stroke:none"
         d="m 3881.67,3121.87 c -0.3,0.84 3.44,3.16 8.36,5.16 4.92,2.01 9.21,2.97 9.59,2.15 0.37,-0.81 -3.37,-3.12 -8.37,-5.16 -4.99,-2.03 -9.28,-3 -9.58,-2.15" /><path
         id="path396"
         style="fill:#33535f;fill-opacity:1;fill-rule:nonzero;stroke:none"
         d="m 3890.88,3260.89 c -0.44,0.78 6.01,5.24 14.38,9.95 8.39,4.71 15.55,7.89 15.99,7.11 0.44,-0.78 -6,-5.23 -14.39,-9.95 -8.38,-4.71 -15.54,-7.89 -15.98,-7.11" /><path
         id="path398"
         style="fill:#33535f;fill-opacity:1;fill-rule:nonzero;stroke:none"
         d="m 3768.17,3368.51 c -0.35,0.83 12.64,7.17 29.02,14.17 16.39,7 29.94,12.01 30.29,11.18 0.36,-0.82 -12.64,-7.17 -29.01,-14.17 -16.38,-7 -29.94,-12.01 -30.3,-11.18" /><path
         id="path400"
         style="fill:#33535f;fill-opacity:1;fill-rule:nonzero;stroke:none"
         d="m 3761.77,3329.35 c -0.35,0.83 7.27,4.89 17.03,9.09 9.76,4.19 17.96,6.92 18.31,6.1 0.36,-0.83 -7.27,-4.9 -17.03,-9.09 -9.76,-4.2 -17.96,-6.93 -18.31,-6.1" /><path
         id="path402"
         style="fill:#33535f;fill-opacity:1;fill-rule:nonzero;stroke:none"
         d="m 3792.3,3421.6 c -0.28,0.88 9.63,4.71 21.65,9.84 12.03,5.09 21.67,9.58 22.12,8.76 0.42,-0.76 -8.65,-6.58 -20.84,-11.75 -12.19,-5.2 -22.68,-7.68 -22.93,-6.85" /><path
         id="path404"
         style="fill:#33535f;fill-opacity:1;fill-rule:nonzero;stroke:none"
         d="m 3813.55,3463.32 c -0.39,0.82 8.81,6.04 20.56,11.66 11.75,5.64 21.58,9.54 21.97,8.73 0.4,-0.8 -8.81,-6.02 -20.56,-11.66 -11.75,-5.62 -21.58,-9.53 -21.97,-8.73" /><path
         id="path406"
         style="fill:#33535f;fill-opacity:1;fill-rule:nonzero;stroke:none"
         d="m 3833.91,3513.64 c -0.44,0.75 9.94,7.56 23.85,13.86 13.9,6.33 25.86,9.64 26.14,8.82 0.3,-0.88 -11.06,-5.53 -24.8,-11.78 -13.75,-6.22 -24.73,-11.7 -25.19,-10.9" /><path
         id="path408"
         style="fill:#33535f;fill-opacity:1;fill-rule:nonzero;stroke:none"
         d="m 3853.61,3555.45 c -0.46,0.79 11.81,8.46 28.01,15.75 16.16,7.39 30.01,11.58 30.3,10.7 0.29,-0.83 -12.91,-6.31 -28.95,-13.66 -16.09,-7.24 -28.92,-13.55 -29.36,-12.79" /></g></g></svg>